<?xml version="1.0" encoding="UTF-8" standalone="no"?>
<!DOCTYPE svg PUBLIC "-//W3C//DTD SVG 1.1//EN"
 "http://www.w3.org/Graphics/SVG/1.1/DTD/svg11.dtd">
<!-- Generated by graphviz version 2.40.1 (0)
 -->
<!-- Title: GermlineStructuralV_dag_20231208_192529 Pages: 1 -->
<svg width="1662pt" height="740pt"
 viewBox="0.00 0.00 1661.60 740.40" xmlns="http://www.w3.org/2000/svg" xmlns:xlink="http://www.w3.org/1999/xlink">
<g id="graph0" class="graph" transform="scale(1 1) rotate(0) translate(4 736.4)">
<title>GermlineStructuralV_dag_20231208_192529</title>
<polygon fill="#ffffff" stroke="transparent" points="-4,4 -4,-736.4 1657.6,-736.4 1657.6,4 -4,4"/>
<!-- p0 -->
<g id="node1" class="node">
<title>p0</title>
<ellipse fill="#000000" stroke="#000000" cx="647.6" cy="-713.8" rx="3.6" ry="3.6"/>
<text text-anchor="middle" x="579" y="-721.2" font-family="Times,serif" font-size="14.00" fill="#000000">Channel.fromPath</text>
</g>
<!-- p1 -->
<g id="node2" class="node">
<title>p1</title>
<ellipse fill="none" stroke="#000000" cx="647.6" cy="-655.2" rx="68.7879" ry="18"/>
<text text-anchor="middle" x="647.6" y="-651.5" font-family="Times,serif" font-size="14.00" fill="#000000">checkInputs</text>
</g>
<!-- p0&#45;&gt;p1 -->
<g id="edge1" class="edge">
<title>p0&#45;&gt;p1</title>
<path fill="none" stroke="#000000" d="M647.6,-709.9551C647.6,-704.4551 647.6,-693.8505 647.6,-683.4272"/>
<polygon fill="#000000" stroke="#000000" points="651.1001,-683.2601 647.6,-673.2601 644.1001,-683.2601 651.1001,-683.2601"/>
</g>
<!-- p2 -->
<g id="node3" class="node">
<title>p2</title>
<ellipse fill="none" stroke="#000000" cx="647.6" cy="-596.7" rx="3.5" ry="3.5"/>
<text text-anchor="middle" x="614.6" y="-604" font-family="Times,serif" font-size="14.00" fill="#000000">splitCsv</text>
</g>
<!-- p1&#45;&gt;p2 -->
<g id="edge2" class="edge">
<title>p1&#45;&gt;p2</title>
<path fill="none" stroke="#000000" d="M647.6,-637.0109C647.6,-628.5587 647.6,-618.6613 647.6,-610.789"/>
<polygon fill="#000000" stroke="#000000" points="651.1001,-610.5836 647.6,-600.5837 644.1001,-610.5837 651.1001,-610.5836"/>
</g>
<!-- p3 -->
<g id="node4" class="node">
<title>p3</title>
<ellipse fill="none" stroke="#000000" cx="647.6" cy="-552.6" rx="3.5" ry="3.5"/>
<text text-anchor="middle" x="628.6" y="-559.9" font-family="Times,serif" font-size="14.00" fill="#000000">map</text>
</g>
<!-- p2&#45;&gt;p3 -->
<g id="edge3" class="edge">
<title>p2&#45;&gt;p3</title>
<path fill="none" stroke="#000000" d="M647.6,-592.9401C647.6,-587.1469 647.6,-575.744 647.6,-566.5354"/>
<polygon fill="#000000" stroke="#000000" points="651.1001,-566.3504 647.6,-556.3504 644.1001,-566.3505 651.1001,-566.3504"/>
</g>
<!-- p5 -->
<g id="node5" class="node">
<title>p5</title>
<ellipse fill="none" stroke="#000000" cx="394.6" cy="-480" rx="50.0912" ry="18"/>
<text text-anchor="middle" x="394.6" y="-476.3" font-family="Times,serif" font-size="14.00" fill="#000000">mutect2</text>
</g>
<!-- p3&#45;&gt;p5 -->
<g id="edge4" class="edge">
<title>p3&#45;&gt;p5</title>
<path fill="none" stroke="#000000" d="M643.8521,-552.5012C615.138,-551.7127 430.6246,-546.0772 411.6,-531 404.5026,-525.3752 400.3431,-516.6875 397.9142,-508.0669"/>
<polygon fill="#000000" stroke="#000000" points="401.3092,-507.2062 395.7853,-498.1653 394.4656,-508.6777 401.3092,-507.2062"/>
<text text-anchor="middle" x="457.6" y="-519.8" font-family="Times,serif" font-size="14.00" fill="#000000">bam_pair_ch</text>
</g>
<!-- p7 -->
<g id="node10" class="node">
<title>p7</title>
<ellipse fill="none" stroke="#000000" cx="144.6" cy="-335" rx="88.2844" ry="18"/>
<text text-anchor="middle" x="144.6" y="-331.3" font-family="Times,serif" font-size="14.00" fill="#000000">GatherVcfs_step</text>
</g>
<!-- p3&#45;&gt;p7 -->
<g id="edge10" class="edge">
<title>p3&#45;&gt;p7</title>
<path fill="none" stroke="#000000" d="M643.8105,-552.4626C616.2397,-551.4346 446.1565,-544.6104 396.6,-531 310.9183,-507.4681 283.4813,-502.4979 216.6,-444 190.2268,-420.9326 169.4633,-386.0097 157.1437,-361.9415"/>
<polygon fill="#000000" stroke="#000000" points="160.2763,-360.3804 152.6907,-352.9838 154.0081,-363.4964 160.2763,-360.3804"/>
<text text-anchor="middle" x="262.6" y="-432.8" font-family="Times,serif" font-size="14.00" fill="#000000">bam_pair_ch</text>
</g>
<!-- p9 -->
<g id="node13" class="node">
<title>p9</title>
<ellipse fill="none" stroke="#000000" cx="654.6" cy="-335" rx="98.5829" ry="18"/>
<text text-anchor="middle" x="654.6" y="-331.3" font-family="Times,serif" font-size="14.00" fill="#000000">MergeMutectStats</text>
</g>
<!-- p3&#45;&gt;p9 -->
<g id="edge14" class="edge">
<title>p3&#45;&gt;p9</title>
<path fill="none" stroke="#000000" d="M647.5532,-548.7537C647.3847,-533.551 646.9047,-476.1794 648.6,-429 649.3952,-406.8692 651.0281,-381.8482 652.3899,-363.1877"/>
<polygon fill="#000000" stroke="#000000" points="655.8957,-363.2389 653.152,-353.0056 648.9153,-362.7164 655.8957,-363.2389"/>
<text text-anchor="middle" x="694.6" y="-432.8" font-family="Times,serif" font-size="14.00" fill="#000000">bam_pair_ch</text>
</g>
<!-- p12 -->
<g id="node16" class="node">
<title>p12</title>
<ellipse fill="none" stroke="#000000" cx="394.6" cy="-335" rx="143.7746" ry="18"/>
<text text-anchor="middle" x="394.6" y="-331.3" font-family="Times,serif" font-size="14.00" fill="#000000">LearnReadOrientationModel</text>
</g>
<!-- p3&#45;&gt;p12 -->
<g id="edge18" class="edge">
<title>p3&#45;&gt;p12</title>
<path fill="none" stroke="#000000" d="M644.8432,-550.1138C628.923,-535.7694 547.0694,-462.1953 478.6,-404 460.9664,-389.0124 440.9525,-372.5513 424.8847,-359.4672"/>
<polygon fill="#000000" stroke="#000000" points="426.8434,-356.549 416.8754,-352.9586 422.4288,-361.9814 426.8434,-356.549"/>
<text text-anchor="middle" x="569.6" y="-432.8" font-family="Times,serif" font-size="14.00" fill="#000000">bam_pair_ch</text>
</g>
<!-- p15 -->
<g id="node19" class="node">
<title>p15</title>
<ellipse fill="none" stroke="#000000" cx="991.6" cy="-480" rx="120.4791" ry="18"/>
<text text-anchor="middle" x="991.6" y="-476.3" font-family="Times,serif" font-size="14.00" fill="#000000">GetPileupSummaries_T</text>
</g>
<!-- p3&#45;&gt;p15 -->
<g id="edge22" class="edge">
<title>p3&#45;&gt;p15</title>
<path fill="none" stroke="#000000" d="M651.14,-552.2713C670.5063,-550.4424 763.734,-541.2325 790.6,-531 802.0048,-526.6562 802.3065,-520.6255 813.6,-516 837.5541,-506.1891 864.4517,-498.9684 889.941,-493.6855"/>
<polygon fill="#000000" stroke="#000000" points="890.8823,-497.0669 900.0069,-491.6826 889.5161,-490.2015 890.8823,-497.0669"/>
<text text-anchor="middle" x="859.6" y="-519.8" font-family="Times,serif" font-size="14.00" fill="#000000">bam_pair_ch</text>
</g>
<!-- p18 -->
<g id="node23" class="node">
<title>p18</title>
<ellipse fill="none" stroke="#000000" cx="1309.6" cy="-480" rx="122.3786" ry="18"/>
<text text-anchor="middle" x="1309.6" y="-476.3" font-family="Times,serif" font-size="14.00" fill="#000000">GetPileupSummaries_N</text>
</g>
<!-- p3&#45;&gt;p18 -->
<g id="edge26" class="edge">
<title>p3&#45;&gt;p18</title>
<path fill="none" stroke="#000000" d="M651.1747,-552.5816C678.6291,-552.3993 856.2644,-550.4716 905.6,-531 915.6076,-527.0502 914.6084,-519.99 924.6,-516 965.2198,-499.779 1077.0513,-502.0734 1120.6,-498 1145.2614,-495.6932 1171.7299,-493.1898 1196.8197,-490.8038"/>
<polygon fill="#000000" stroke="#000000" points="1197.4799,-494.2569 1207.1033,-489.8251 1196.8167,-487.2883 1197.4799,-494.2569"/>
<text text-anchor="middle" x="970.6" y="-519.8" font-family="Times,serif" font-size="14.00" fill="#000000">bam_pair_ch</text>
</g>
<!-- p21 -->
<g id="node26" class="node">
<title>p21</title>
<ellipse fill="none" stroke="#000000" cx="933.6" cy="-335" rx="124.2781" ry="18"/>
<text text-anchor="middle" x="933.6" y="-331.3" font-family="Times,serif" font-size="14.00" fill="#000000">CalculateContamination</text>
</g>
<!-- p3&#45;&gt;p21 -->
<g id="edge30" class="edge">
<title>p3&#45;&gt;p21</title>
<path fill="none" stroke="#000000" d="M651.241,-552.2627C668.8535,-550.5825 745.1956,-542.7264 765.6,-531 837.6402,-489.5985 893.4481,-405.3667 918.7516,-362.0543"/>
<polygon fill="#000000" stroke="#000000" points="921.8828,-363.6298 923.8232,-353.2142 915.811,-360.1464 921.8828,-363.6298"/>
<text text-anchor="middle" x="919.6" y="-432.8" font-family="Times,serif" font-size="14.00" fill="#000000">bam_pair_ch</text>
</g>
<!-- p29 -->
<g id="node29" class="node">
<title>p29</title>
<ellipse fill="none" stroke="#000000" cx="629.6" cy="-189.8" rx="93.6835" ry="18"/>
<text text-anchor="middle" x="629.6" y="-186.1" font-family="Times,serif" font-size="14.00" fill="#000000">FilterMutectCalls</text>
</g>
<!-- p3&#45;&gt;p29 -->
<g id="edge39" class="edge">
<title>p3&#45;&gt;p29</title>
<path fill="none" stroke="#000000" d="M650.5297,-550.1343C671.6672,-532.0324 799.0123,-417.5725 762.6,-317 745.8759,-270.8073 701.262,-234.2162 668.294,-212.3567"/>
<polygon fill="#000000" stroke="#000000" points="670.0635,-209.3332 659.763,-206.8531 666.2687,-215.2153 670.0635,-209.3332"/>
<text text-anchor="middle" x="813.6" y="-374.8" font-family="Times,serif" font-size="14.00" fill="#000000">bam_pair_ch</text>
</g>
<!-- p32 -->
<g id="node32" class="node">
<title>p32</title>
<ellipse fill="none" stroke="#000000" cx="337.6" cy="-58.6" rx="101.2821" ry="18"/>
<text text-anchor="middle" x="337.6" y="-54.9" font-family="Times,serif" font-size="14.00" fill="#000000">getFilteredVariants</text>
</g>
<!-- p3&#45;&gt;p32 -->
<g id="edge43" class="edge">
<title>p3&#45;&gt;p32</title>
<path fill="none" stroke="#000000" d="M643.9648,-552.574C593.2358,-552.166 28.6,-546.1384 28.6,-480 28.6,-480 28.6,-480 28.6,-131.2 28.6,-88.8833 139.8126,-71.2108 228.7991,-63.8434"/>
<polygon fill="#000000" stroke="#000000" points="229.2886,-67.3157 238.9809,-63.0367 228.7357,-60.3376 229.2886,-67.3157"/>
<text text-anchor="middle" x="74.6" y="-287.8" font-family="Times,serif" font-size="14.00" fill="#000000">bam_pair_ch</text>
</g>
<!-- p6 -->
<g id="node7" class="node">
<title>p6</title>
<ellipse fill="none" stroke="#000000" cx="273.6" cy="-407.5" rx="3.5" ry="3.5"/>
<text text-anchor="middle" x="245.6" y="-414.8" font-family="Times,serif" font-size="14.00" fill="#000000">collect</text>
</g>
<!-- p5&#45;&gt;p6 -->
<g id="edge6" class="edge">
<title>p5&#45;&gt;p6</title>
<path fill="none" stroke="#000000" d="M368.6425,-464.4469C342.9819,-449.0718 304.8533,-426.2262 285.6209,-414.7026"/>
<polygon fill="#000000" stroke="#000000" points="287.2742,-411.6131 276.8972,-409.4756 283.6764,-417.6177 287.2742,-411.6131"/>
</g>
<!-- p8 -->
<g id="node8" class="node">
<title>p8</title>
<ellipse fill="none" stroke="#000000" cx="465.6" cy="-407.5" rx="3.5" ry="3.5"/>
<text text-anchor="middle" x="437.6" y="-414.8" font-family="Times,serif" font-size="14.00" fill="#000000">collect</text>
</g>
<!-- p5&#45;&gt;p8 -->
<g id="edge7" class="edge">
<title>p5&#45;&gt;p8</title>
<path fill="none" stroke="#000000" d="M411.426,-462.8185C425.2813,-448.6705 444.4419,-429.1051 455.8721,-417.4335"/>
<polygon fill="#000000" stroke="#000000" points="458.3938,-419.8608 462.8899,-410.2673 453.3925,-414.963 458.3938,-419.8608"/>
</g>
<!-- p11 -->
<g id="node9" class="node">
<title>p11</title>
<ellipse fill="none" stroke="#000000" cx="394.6" cy="-407.5" rx="3.5" ry="3.5"/>
<text text-anchor="middle" x="366.6" y="-414.8" font-family="Times,serif" font-size="14.00" fill="#000000">collect</text>
</g>
<!-- p5&#45;&gt;p11 -->
<g id="edge8" class="edge">
<title>p5&#45;&gt;p11</title>
<path fill="none" stroke="#000000" d="M394.6,-461.7052C394.6,-449.1364 394.6,-432.7149 394.6,-421.2543"/>
<polygon fill="#000000" stroke="#000000" points="398.1001,-421.1824 394.6,-411.1824 391.1001,-421.1825 398.1001,-421.1824"/>
</g>
<!-- p4 -->
<g id="node6" class="node">
<title>p4</title>
<ellipse fill="#000000" stroke="#000000" cx="3.6" cy="-552.6" rx="3.6" ry="3.6"/>
</g>
<!-- p4&#45;&gt;p5 -->
<g id="edge5" class="edge">
<title>p4&#45;&gt;p5</title>
<path fill="none" stroke="#000000" d="M7.4699,-551.8815C37.9498,-546.222 240.777,-508.5615 340.0555,-490.1277"/>
<polygon fill="#000000" stroke="#000000" points="340.7136,-493.5654 349.9066,-488.2986 339.4357,-486.683 340.7136,-493.5654"/>
</g>
<!-- p6&#45;&gt;p7 -->
<g id="edge9" class="edge">
<title>p6&#45;&gt;p7</title>
<path fill="none" stroke="#000000" d="M270.4112,-405.7079C258.5661,-399.0507 216.1145,-375.1922 183.7682,-357.0131"/>
<polygon fill="#000000" stroke="#000000" points="185.379,-353.9036 174.9467,-352.0553 181.9494,-360.0059 185.379,-353.9036"/>
</g>
<!-- p8&#45;&gt;p9 -->
<g id="edge13" class="edge">
<title>p8&#45;&gt;p9</title>
<path fill="none" stroke="#000000" d="M468.8804,-406.2416C484.5509,-400.2305 553.0575,-373.9515 602.3102,-355.0582"/>
<polygon fill="#000000" stroke="#000000" points="603.7996,-358.2357 611.8827,-351.3863 601.2925,-351.7 603.7996,-358.2357"/>
</g>
<!-- p11&#45;&gt;p12 -->
<g id="edge17" class="edge">
<title>p11&#45;&gt;p12</title>
<path fill="none" stroke="#000000" d="M394.6,-403.6021C394.6,-396.0027 394.6,-378.603 394.6,-363.2295"/>
<polygon fill="#000000" stroke="#000000" points="398.1001,-363.0553 394.6,-353.0553 391.1001,-363.0553 398.1001,-363.0553"/>
</g>
<!-- p25 -->
<g id="node11" class="node">
<title>p25</title>
<ellipse fill="none" stroke="#000000" cx="259.6" cy="-262.4" rx="3.5" ry="3.5"/>
<text text-anchor="middle" x="231.6" y="-269.7" font-family="Times,serif" font-size="14.00" fill="#000000">collect</text>
</g>
<!-- p7&#45;&gt;p25 -->
<g id="edge11" class="edge">
<title>p7&#45;&gt;p25</title>
<path fill="none" stroke="#000000" d="M173.2191,-317.7822C182.9056,-311.8898 193.7595,-305.2159 203.6,-299 219.0781,-289.2231 236.7262,-277.6103 248.0041,-270.129"/>
<polygon fill="#000000" stroke="#000000" points="250.2008,-272.8714 256.5862,-264.4169 246.3222,-267.0441 250.2008,-272.8714"/>
</g>
<!-- p26 -->
<g id="node12" class="node">
<title>p26</title>
<ellipse fill="none" stroke="#000000" cx="221.6" cy="-262.4" rx="3.5" ry="3.5"/>
<text text-anchor="middle" x="193.6" y="-247.7" font-family="Times,serif" font-size="14.00" fill="#000000">collect</text>
</g>
<!-- p7&#45;&gt;p26 -->
<g id="edge12" class="edge">
<title>p7&#45;&gt;p26</title>
<path fill="none" stroke="#000000" d="M163.6337,-317.0539C178.681,-302.8665 199.1119,-283.6031 211.2681,-272.1415"/>
<polygon fill="#000000" stroke="#000000" points="213.8501,-274.5175 218.7249,-265.1108 209.048,-269.4244 213.8501,-274.5175"/>
</g>
<!-- p25&#45;&gt;p29 -->
<g id="edge36" class="edge">
<title>p25&#45;&gt;p29</title>
<path fill="none" stroke="#000000" d="M263.262,-261.6815C289.8193,-256.4705 454.6431,-224.1294 553.9345,-204.6468"/>
<polygon fill="#000000" stroke="#000000" points="554.7854,-208.0467 563.9243,-202.6866 553.4375,-201.1776 554.7854,-208.0467"/>
</g>
<!-- p26&#45;&gt;p29 -->
<g id="edge37" class="edge">
<title>p26&#45;&gt;p29</title>
<path fill="none" stroke="#000000" d="M225.3567,-261.362C242.4328,-256.6733 314.4938,-237.2055 374.6,-225.8 429.0506,-215.4677 490.5585,-206.7007 539.5222,-200.4058"/>
<polygon fill="#000000" stroke="#000000" points="539.9795,-203.8759 549.457,-199.1402 539.0949,-196.932 539.9795,-203.8759"/>
</g>
<!-- p10 -->
<g id="node14" class="node">
<title>p10</title>
<ellipse fill="#000000" stroke="#000000" cx="654.6" cy="-262.4" rx="1.8" ry="1.8"/>
</g>
<!-- p9&#45;&gt;p10 -->
<g id="edge15" class="edge">
<title>p9&#45;&gt;p10</title>
<path fill="none" stroke="#000000" d="M654.6,-316.68C654.6,-303.3955 654.6,-285.813 654.6,-274.3103"/>
<polygon fill="#000000" stroke="#000000" points="658.1001,-274.2218 654.6,-264.2218 651.1001,-274.2219 658.1001,-274.2218"/>
</g>
<!-- p22 -->
<g id="node15" class="node">
<title>p22</title>
<ellipse fill="none" stroke="#000000" cx="629.6" cy="-262.4" rx="3.5" ry="3.5"/>
<text text-anchor="middle" x="601.6" y="-269.7" font-family="Times,serif" font-size="14.00" fill="#000000">collect</text>
</g>
<!-- p9&#45;&gt;p22 -->
<g id="edge16" class="edge">
<title>p9&#45;&gt;p22</title>
<path fill="none" stroke="#000000" d="M648.2914,-316.68C643.8683,-303.8353 638.0615,-286.9723 634.1014,-275.4722"/>
<polygon fill="#000000" stroke="#000000" points="637.3438,-274.138 630.7785,-265.8224 630.7252,-276.4171 637.3438,-274.138"/>
</g>
<!-- p22&#45;&gt;p29 -->
<g id="edge33" class="edge">
<title>p22&#45;&gt;p29</title>
<path fill="none" stroke="#000000" d="M629.6,-258.8984C629.6,-251.534 629.6,-233.8304 629.6,-218.1875"/>
<polygon fill="#000000" stroke="#000000" points="633.1001,-217.8393 629.6,-207.8393 626.1001,-217.8394 633.1001,-217.8393"/>
</g>
<!-- p27 -->
<g id="node17" class="node">
<title>p27</title>
<ellipse fill="none" stroke="#000000" cx="489.6" cy="-262.4" rx="3.5" ry="3.5"/>
<text text-anchor="middle" x="461.6" y="-269.7" font-family="Times,serif" font-size="14.00" fill="#000000">collect</text>
</g>
<!-- p12&#45;&gt;p27 -->
<g id="edge19" class="edge">
<title>p12&#45;&gt;p27</title>
<path fill="none" stroke="#000000" d="M418.0832,-317.0539C437.3691,-302.3154 463.8233,-282.0988 478.5535,-270.8418"/>
<polygon fill="#000000" stroke="#000000" points="480.8258,-273.5104 486.6461,-264.6574 476.5754,-267.9485 480.8258,-273.5104"/>
</g>
<!-- p27&#45;&gt;p29 -->
<g id="edge38" class="edge">
<title>p27&#45;&gt;p29</title>
<path fill="none" stroke="#000000" d="M493.0607,-260.6054C506.0095,-253.8905 552.66,-229.6989 587.8569,-211.4468"/>
<polygon fill="#000000" stroke="#000000" points="589.7199,-214.4234 596.986,-206.7127 586.4974,-208.2092 589.7199,-214.4234"/>
</g>
<!-- p13 -->
<g id="node18" class="node">
<title>p13</title>
<ellipse fill="#000000" stroke="#000000" cx="1219.6" cy="-552.6" rx="3.6" ry="3.6"/>
</g>
<!-- p13&#45;&gt;p15 -->
<g id="edge20" class="edge">
<title>p13&#45;&gt;p15</title>
<path fill="none" stroke="#000000" d="M1217.7828,-549.3099C1213.5513,-541.9892 1202.2745,-524.3437 1187.6,-516 1171.3111,-506.7384 1133.7158,-498.8691 1095.7608,-492.8721"/>
<polygon fill="#000000" stroke="#000000" points="1096.0076,-489.369 1085.592,-491.3096 1094.9444,-496.2878 1096.0076,-489.369"/>
<text text-anchor="middle" x="1266.1" y="-519.8" font-family="Times,serif" font-size="14.00" fill="#000000">common_biallelic</text>
</g>
<!-- p19 -->
<g id="node21" class="node">
<title>p19</title>
<ellipse fill="none" stroke="#000000" cx="977.6" cy="-407.5" rx="3.5" ry="3.5"/>
<text text-anchor="middle" x="949.6" y="-414.8" font-family="Times,serif" font-size="14.00" fill="#000000">collect</text>
</g>
<!-- p15&#45;&gt;p19 -->
<g id="edge23" class="edge">
<title>p15&#45;&gt;p19</title>
<path fill="none" stroke="#000000" d="M988.0672,-461.7052C985.6401,-449.1364 982.4691,-432.7149 980.256,-421.2543"/>
<polygon fill="#000000" stroke="#000000" points="983.6437,-420.3374 978.3111,-411.1824 976.7707,-421.6647 983.6437,-420.3374"/>
</g>
<!-- p14 -->
<g id="node20" class="node">
<title>p14</title>
<ellipse fill="#000000" stroke="#000000" cx="1042.6" cy="-552.6" rx="3.6" ry="3.6"/>
</g>
<!-- p14&#45;&gt;p15 -->
<g id="edge21" class="edge">
<title>p14&#45;&gt;p15</title>
<path fill="none" stroke="#000000" d="M1040.6907,-549.0694C1037.0503,-542.4224 1028.7506,-527.6699 1020.6,-516 1018.2879,-512.6896 1015.7645,-509.2899 1013.2021,-505.9638"/>
<polygon fill="#000000" stroke="#000000" points="1015.8018,-503.6088 1006.8506,-497.9406 1010.3134,-507.9536 1015.8018,-503.6088"/>
<text text-anchor="middle" x="1106.6" y="-519.8" font-family="Times,serif" font-size="14.00" fill="#000000">common_biallelic_idx</text>
</g>
<!-- p19&#45;&gt;p21 -->
<g id="edge28" class="edge">
<title>p19&#45;&gt;p21</title>
<path fill="none" stroke="#000000" d="M975.7094,-404.3848C971.2404,-397.0211 959.6572,-377.9351 949.7682,-361.6409"/>
<polygon fill="#000000" stroke="#000000" points="952.685,-359.7008 944.5047,-352.9679 946.7009,-363.3326 952.685,-359.7008"/>
</g>
<!-- p16 -->
<g id="node22" class="node">
<title>p16</title>
<ellipse fill="#000000" stroke="#000000" cx="1367.6" cy="-552.6" rx="3.6" ry="3.6"/>
</g>
<!-- p16&#45;&gt;p18 -->
<g id="edge24" class="edge">
<title>p16&#45;&gt;p18</title>
<path fill="none" stroke="#000000" d="M1365.8058,-548.9843C1362.3573,-542.1956 1354.3645,-527.2161 1345.6,-516 1342.7683,-512.3762 1339.6005,-508.7383 1336.3503,-505.2418"/>
<polygon fill="#000000" stroke="#000000" points="1338.6769,-502.6136 1329.2016,-497.8734 1333.6528,-507.4878 1338.6769,-502.6136"/>
<text text-anchor="middle" x="1417.1" y="-519.8" font-family="Times,serif" font-size="14.00" fill="#000000">common_biallelic</text>
</g>
<!-- p20 -->
<g id="node25" class="node">
<title>p20</title>
<ellipse fill="none" stroke="#000000" cx="1148.6" cy="-407.5" rx="3.5" ry="3.5"/>
<text text-anchor="middle" x="1120.6" y="-414.8" font-family="Times,serif" font-size="14.00" fill="#000000">collect</text>
</g>
<!-- p18&#45;&gt;p20 -->
<g id="edge27" class="edge">
<title>p18&#45;&gt;p20</title>
<path fill="none" stroke="#000000" d="M1271.4452,-462.8185C1235.8076,-446.7705 1184.6912,-423.7523 1161.2368,-413.1905"/>
<polygon fill="#000000" stroke="#000000" points="1162.481,-409.9123 1151.9258,-408.9976 1159.6068,-416.295 1162.481,-409.9123"/>
</g>
<!-- p17 -->
<g id="node24" class="node">
<title>p17</title>
<ellipse fill="#000000" stroke="#000000" cx="1515.6" cy="-552.6" rx="3.6" ry="3.6"/>
</g>
<!-- p17&#45;&gt;p18 -->
<g id="edge25" class="edge">
<title>p17&#45;&gt;p18</title>
<path fill="none" stroke="#000000" d="M1513.7692,-549.3334C1509.5101,-542.0608 1498.1803,-524.5073 1483.6,-516 1469.7762,-507.9341 1438.5715,-500.4923 1406.3471,-494.4939"/>
<polygon fill="#000000" stroke="#000000" points="1406.7956,-491.0182 1396.3318,-492.6795 1405.5477,-497.9061 1406.7956,-491.0182"/>
<text text-anchor="middle" x="1576.6" y="-519.8" font-family="Times,serif" font-size="14.00" fill="#000000">common_biallelic_idx</text>
</g>
<!-- p20&#45;&gt;p21 -->
<g id="edge29" class="edge">
<title>p20&#45;&gt;p21</title>
<path fill="none" stroke="#000000" d="M1145.2229,-406.3612C1128.0524,-400.5711 1049.046,-373.9295 992.6045,-354.8969"/>
<polygon fill="#000000" stroke="#000000" points="993.646,-351.5545 983.0518,-351.6756 991.4092,-358.1875 993.646,-351.5545"/>
</g>
<!-- p23 -->
<g id="node27" class="node">
<title>p23</title>
<ellipse fill="none" stroke="#000000" cx="909.6" cy="-262.4" rx="3.5" ry="3.5"/>
<text text-anchor="middle" x="881.6" y="-269.7" font-family="Times,serif" font-size="14.00" fill="#000000">collect</text>
</g>
<!-- p21&#45;&gt;p23 -->
<g id="edge31" class="edge">
<title>p21&#45;&gt;p23</title>
<path fill="none" stroke="#000000" d="M927.5438,-316.68C923.2976,-303.8353 917.7231,-286.9723 913.9214,-275.4722"/>
<polygon fill="#000000" stroke="#000000" points="917.1933,-274.2185 910.7314,-265.8224 910.547,-276.4157 917.1933,-274.2185"/>
</g>
<!-- p24 -->
<g id="node28" class="node">
<title>p24</title>
<ellipse fill="none" stroke="#000000" cx="860.6" cy="-262.4" rx="3.5" ry="3.5"/>
<text text-anchor="middle" x="832.6" y="-269.7" font-family="Times,serif" font-size="14.00" fill="#000000">collect</text>
</g>
<!-- p21&#45;&gt;p24 -->
<g id="edge32" class="edge">
<title>p21&#45;&gt;p24</title>
<path fill="none" stroke="#000000" d="M915.5551,-317.0539C901.4293,-303.0056 882.2992,-283.9803 870.7364,-272.4808"/>
<polygon fill="#000000" stroke="#000000" points="872.8843,-269.6807 863.3257,-265.1108 867.9481,-274.6441 872.8843,-269.6807"/>
</g>
<!-- p23&#45;&gt;p29 -->
<g id="edge34" class="edge">
<title>p23&#45;&gt;p29</title>
<path fill="none" stroke="#000000" d="M906.415,-260.7398C895.3109,-255.0187 857.1561,-235.9204 823.6,-225.8 789.1234,-215.402 750.2488,-207.4731 716.4016,-201.739"/>
<polygon fill="#000000" stroke="#000000" points="716.9717,-198.2858 706.5342,-200.1048 715.8279,-205.1917 716.9717,-198.2858"/>
</g>
<!-- p24&#45;&gt;p29 -->
<g id="edge35" class="edge">
<title>p24&#45;&gt;p29</title>
<path fill="none" stroke="#000000" d="M857.2572,-260.0317C847.9527,-253.5504 820.7802,-235.3698 795.6,-225.8 769.6904,-215.953 740.4291,-208.4838 713.77,-202.9738"/>
<polygon fill="#000000" stroke="#000000" points="714.1848,-199.4875 703.6924,-200.9571 712.8112,-206.3514 714.1848,-199.4875"/>
</g>
<!-- p30 -->
<g id="node31" class="node">
<title>p30</title>
<ellipse fill="none" stroke="#000000" cx="345.6" cy="-131.2" rx="3.5" ry="3.5"/>
<text text-anchor="middle" x="317.6" y="-138.5" font-family="Times,serif" font-size="14.00" fill="#000000">collect</text>
</g>
<!-- p29&#45;&gt;p30 -->
<g id="edge41" class="edge">
<title>p29&#45;&gt;p30</title>
<path fill="none" stroke="#000000" d="M560.4573,-177.6352C507.6184,-167.9219 432.825,-153.278 359.0724,-134.861"/>
<polygon fill="#000000" stroke="#000000" points="359.6991,-131.4095 349.1468,-132.3576 357.9872,-138.1969 359.6991,-131.4095"/>
</g>
<!-- p28 -->
<g id="node30" class="node">
<title>p28</title>
<ellipse fill="#000000" stroke="#000000" cx="677.6" cy="-262.4" rx="3.6" ry="3.6"/>
</g>
<!-- p28&#45;&gt;p29 -->
<g id="edge40" class="edge">
<title>p28&#45;&gt;p29</title>
<path fill="none" stroke="#000000" d="M675.5375,-259.2805C670.6622,-251.9067 658.026,-232.7943 647.2381,-216.4776"/>
<polygon fill="#000000" stroke="#000000" points="649.9308,-214.204 641.496,-207.7927 644.0916,-218.0647 649.9308,-214.204"/>
<text text-anchor="middle" x="672.1" y="-229.6" font-family="Times,serif" font-size="14.00" fill="#000000">ref</text>
</g>
<!-- p30&#45;&gt;p32 -->
<g id="edge42" class="edge">
<title>p30&#45;&gt;p32</title>
<path fill="none" stroke="#000000" d="M345.2141,-127.6984C344.4026,-120.334 342.4518,-102.6304 340.7281,-86.9875"/>
<polygon fill="#000000" stroke="#000000" points="344.1621,-86.1958 339.5878,-76.6393 337.2042,-86.9626 344.1621,-86.1958"/>
</g>
<!-- p33 -->
<g id="node34" class="node">
<title>p33</title>
<ellipse fill="#000000" stroke="#000000" cx="337.6" cy="-1.8" rx="1.8" ry="1.8"/>
</g>
<!-- p32&#45;&gt;p33 -->
<g id="edge45" class="edge">
<title>p32&#45;&gt;p33</title>
<path fill="none" stroke="#000000" d="M337.6,-40.3155C337.6,-31.6139 337.6,-21.4551 337.6,-13.756"/>
<polygon fill="#000000" stroke="#000000" points="341.1001,-13.6036 337.6,-3.6036 334.1001,-13.6037 341.1001,-13.6036"/>
</g>
<!-- p31 -->
<g id="node33" class="node">
<title>p31</title>
<ellipse fill="#000000" stroke="#000000" cx="370.6" cy="-131.2" rx="3.6" ry="3.6"/>
</g>
<!-- p31&#45;&gt;p32 -->
<g id="edge44" class="edge">
<title>p31&#45;&gt;p32</title>
<path fill="none" stroke="#000000" d="M369.0083,-127.6984C365.5965,-120.1924 357.3026,-101.9457 350.0943,-86.0874"/>
<polygon fill="#000000" stroke="#000000" points="353.1241,-84.2947 345.7997,-76.6393 346.7515,-87.1914 353.1241,-84.2947"/>
<text text-anchor="middle" x="370.1" y="-98.4" font-family="Times,serif" font-size="14.00" fill="#000000">ref</text>
</g>
</g>
</svg>
