<?xml version="1.0" encoding="UTF-8" standalone="no"?>
<!DOCTYPE svg PUBLIC "-//W3C//DTD SVG 1.1//EN"
 "http://www.w3.org/Graphics/SVG/1.1/DTD/svg11.dtd">
<!-- Generated by graphviz version 2.40.1 (0)
 -->
<!-- Title: GermlineStructuralV_dag_20231205_101120 Pages: 1 -->
<svg width="252pt" height="319pt"
 viewBox="0.00 0.00 252.20 319.00" xmlns="http://www.w3.org/2000/svg" xmlns:xlink="http://www.w3.org/1999/xlink">
<g id="graph0" class="graph" transform="scale(1 1) rotate(0) translate(4 315)">
<title>GermlineStructuralV_dag_20231205_101120</title>
<polygon fill="#ffffff" stroke="transparent" points="-4,4 -4,-315 248.2,-315 248.2,4 -4,4"/>
<!-- p0 -->
<g id="node1" class="node">
<title>p0</title>
<ellipse fill="#000000" stroke="#000000" cx="133.6" cy="-292.4" rx="3.6" ry="3.6"/>
<text text-anchor="middle" x="65" y="-299.8" font-family="Times,serif" font-size="14.00" fill="#000000">Channel.fromPath</text>
</g>
<!-- p1 -->
<g id="node2" class="node">
<title>p1</title>
<ellipse fill="none" stroke="#000000" cx="133.6" cy="-233.8" rx="68.7879" ry="18"/>
<text text-anchor="middle" x="133.6" y="-230.1" font-family="Times,serif" font-size="14.00" fill="#000000">checkInputs</text>
</g>
<!-- p0&#45;&gt;p1 -->
<g id="edge1" class="edge">
<title>p0&#45;&gt;p1</title>
<path fill="none" stroke="#000000" d="M133.6,-288.5551C133.6,-283.0551 133.6,-272.4505 133.6,-262.0272"/>
<polygon fill="#000000" stroke="#000000" points="137.1001,-261.8601 133.6,-251.8601 130.1001,-261.8601 137.1001,-261.8601"/>
</g>
<!-- p2 -->
<g id="node3" class="node">
<title>p2</title>
<ellipse fill="none" stroke="#000000" cx="133.6" cy="-175.3" rx="3.5" ry="3.5"/>
<text text-anchor="middle" x="100.6" y="-182.6" font-family="Times,serif" font-size="14.00" fill="#000000">splitCsv</text>
</g>
<!-- p1&#45;&gt;p2 -->
<g id="edge2" class="edge">
<title>p1&#45;&gt;p2</title>
<path fill="none" stroke="#000000" d="M133.6,-215.6109C133.6,-207.1587 133.6,-197.2613 133.6,-189.389"/>
<polygon fill="#000000" stroke="#000000" points="137.1001,-189.1836 133.6,-179.1837 130.1001,-189.1837 137.1001,-189.1836"/>
</g>
<!-- p3 -->
<g id="node4" class="node">
<title>p3</title>
<ellipse fill="none" stroke="#000000" cx="133.6" cy="-131.2" rx="3.5" ry="3.5"/>
<text text-anchor="middle" x="114.6" y="-138.5" font-family="Times,serif" font-size="14.00" fill="#000000">map</text>
</g>
<!-- p2&#45;&gt;p3 -->
<g id="edge3" class="edge">
<title>p2&#45;&gt;p3</title>
<path fill="none" stroke="#000000" d="M133.6,-171.5401C133.6,-165.7469 133.6,-154.344 133.6,-145.1354"/>
<polygon fill="#000000" stroke="#000000" points="137.1001,-144.9504 133.6,-134.9504 130.1001,-144.9505 137.1001,-144.9504"/>
</g>
<!-- p5 -->
<g id="node5" class="node">
<title>p5</title>
<ellipse fill="none" stroke="#000000" cx="186.6" cy="-58.6" rx="50.0912" ry="18"/>
<text text-anchor="middle" x="186.6" y="-54.9" font-family="Times,serif" font-size="14.00" fill="#000000">mutect2</text>
</g>
<!-- p3&#45;&gt;p5 -->
<g id="edge4" class="edge">
<title>p3&#45;&gt;p5</title>
<path fill="none" stroke="#000000" d="M132.6666,-127.4935C131.1318,-120.5536 128.7887,-105.3322 134.6,-94.6 137.8669,-88.5668 142.6369,-83.3341 147.9816,-78.8705"/>
<polygon fill="#000000" stroke="#000000" points="150.1408,-81.6271 156.1154,-72.8776 145.9886,-75.9916 150.1408,-81.6271"/>
<text text-anchor="middle" x="180.6" y="-98.4" font-family="Times,serif" font-size="14.00" fill="#000000">bam_pair_ch</text>
</g>
<!-- p8 -->
<g id="node7" class="node">
<title>p8</title>
<ellipse fill="#000000" stroke="#000000" cx="161.6" cy="-1.8" rx="1.8" ry="1.8"/>
</g>
<!-- p5&#45;&gt;p8 -->
<g id="edge6" class="edge">
<title>p5&#45;&gt;p8</title>
<path fill="none" stroke="#000000" d="M178.6898,-40.6281C174.7094,-31.5847 170.008,-20.903 166.5448,-13.0346"/>
<polygon fill="#000000" stroke="#000000" points="169.6354,-11.3682 162.4035,-3.6255 163.2286,-14.1882 169.6354,-11.3682"/>
</g>
<!-- p7 -->
<g id="node8" class="node">
<title>p7</title>
<ellipse fill="#000000" stroke="#000000" cx="186.6" cy="-1.8" rx="1.8" ry="1.8"/>
</g>
<!-- p5&#45;&gt;p7 -->
<g id="edge7" class="edge">
<title>p5&#45;&gt;p7</title>
<path fill="none" stroke="#000000" d="M186.6,-40.3155C186.6,-31.6139 186.6,-21.4551 186.6,-13.756"/>
<polygon fill="#000000" stroke="#000000" points="190.1001,-13.6036 186.6,-3.6036 183.1001,-13.6037 190.1001,-13.6036"/>
</g>
<!-- p6 -->
<g id="node9" class="node">
<title>p6</title>
<ellipse fill="#000000" stroke="#000000" cx="211.6" cy="-1.8" rx="1.8" ry="1.8"/>
</g>
<!-- p5&#45;&gt;p6 -->
<g id="edge8" class="edge">
<title>p5&#45;&gt;p6</title>
<path fill="none" stroke="#000000" d="M194.5102,-40.6281C198.4906,-31.5847 203.192,-20.903 206.6552,-13.0346"/>
<polygon fill="#000000" stroke="#000000" points="209.9714,-14.1882 210.7965,-3.6255 203.5646,-11.3682 209.9714,-14.1882"/>
</g>
<!-- p4 -->
<g id="node6" class="node">
<title>p4</title>
<ellipse fill="#000000" stroke="#000000" cx="240.6" cy="-131.2" rx="3.6" ry="3.6"/>
</g>
<!-- p4&#45;&gt;p5 -->
<g id="edge5" class="edge">
<title>p4&#45;&gt;p5</title>
<path fill="none" stroke="#000000" d="M239.7987,-127.5003C238.1717,-120.5717 233.9933,-105.3683 226.6,-94.6 223.5709,-90.1881 219.8947,-85.9482 216.0126,-82.0242"/>
<polygon fill="#000000" stroke="#000000" points="218.1015,-79.1853 208.4096,-74.9053 213.3171,-84.2951 218.1015,-79.1853"/>
</g>
</g>
</svg>
