<?xml version="1.0" encoding="UTF-8" standalone="no"?>
<!DOCTYPE svg PUBLIC "-//W3C//DTD SVG 1.1//EN"
 "http://www.w3.org/Graphics/SVG/1.1/DTD/svg11.dtd">
<!-- Generated by graphviz version 2.40.1 (0)
 -->
<!-- Title: GermlineStructuralV_dag_20231205_160141 Pages: 1 -->
<svg width="357pt" height="595pt"
 viewBox="0.00 0.00 356.50 595.20" xmlns="http://www.w3.org/2000/svg" xmlns:xlink="http://www.w3.org/1999/xlink">
<g id="graph0" class="graph" transform="scale(1 1) rotate(0) translate(4 591.2)">
<title>GermlineStructuralV_dag_20231205_160141</title>
<polygon fill="#ffffff" stroke="transparent" points="-4,4 -4,-591.2 352.5,-591.2 352.5,4 -4,4"/>
<!-- p0 -->
<g id="node1" class="node">
<title>p0</title>
<ellipse fill="#000000" stroke="#000000" cx="149.5" cy="-568.6" rx="3.6" ry="3.6"/>
<text text-anchor="middle" x="80.9" y="-576" font-family="Times,serif" font-size="14.00" fill="#000000">Channel.fromPath</text>
</g>
<!-- p1 -->
<g id="node2" class="node">
<title>p1</title>
<ellipse fill="none" stroke="#000000" cx="149.5" cy="-510" rx="68.7879" ry="18"/>
<text text-anchor="middle" x="149.5" y="-506.3" font-family="Times,serif" font-size="14.00" fill="#000000">checkInputs</text>
</g>
<!-- p0&#45;&gt;p1 -->
<g id="edge1" class="edge">
<title>p0&#45;&gt;p1</title>
<path fill="none" stroke="#000000" d="M149.5,-564.7551C149.5,-559.2551 149.5,-548.6505 149.5,-538.2272"/>
<polygon fill="#000000" stroke="#000000" points="153.0001,-538.0601 149.5,-528.0601 146.0001,-538.0601 153.0001,-538.0601"/>
</g>
<!-- p2 -->
<g id="node3" class="node">
<title>p2</title>
<ellipse fill="none" stroke="#000000" cx="149.5" cy="-451.5" rx="3.5" ry="3.5"/>
<text text-anchor="middle" x="116.5" y="-458.8" font-family="Times,serif" font-size="14.00" fill="#000000">splitCsv</text>
</g>
<!-- p1&#45;&gt;p2 -->
<g id="edge2" class="edge">
<title>p1&#45;&gt;p2</title>
<path fill="none" stroke="#000000" d="M149.5,-491.8109C149.5,-483.3587 149.5,-473.4613 149.5,-465.589"/>
<polygon fill="#000000" stroke="#000000" points="153.0001,-465.3836 149.5,-455.3837 146.0001,-465.3837 153.0001,-465.3836"/>
</g>
<!-- p3 -->
<g id="node4" class="node">
<title>p3</title>
<ellipse fill="none" stroke="#000000" cx="149.5" cy="-407.4" rx="3.5" ry="3.5"/>
<text text-anchor="middle" x="130.5" y="-414.7" font-family="Times,serif" font-size="14.00" fill="#000000">map</text>
</g>
<!-- p2&#45;&gt;p3 -->
<g id="edge3" class="edge">
<title>p2&#45;&gt;p3</title>
<path fill="none" stroke="#000000" d="M149.5,-447.7401C149.5,-441.9469 149.5,-430.544 149.5,-421.3354"/>
<polygon fill="#000000" stroke="#000000" points="153.0001,-421.1504 149.5,-411.1504 146.0001,-421.1505 153.0001,-421.1504"/>
</g>
<!-- p5 -->
<g id="node5" class="node">
<title>p5</title>
<ellipse fill="none" stroke="#000000" cx="52.5" cy="-334.8" rx="50.0912" ry="18"/>
<text text-anchor="middle" x="52.5" y="-331.1" font-family="Times,serif" font-size="14.00" fill="#000000">mutect2</text>
</g>
<!-- p3&#45;&gt;p5 -->
<g id="edge4" class="edge">
<title>p3&#45;&gt;p5</title>
<path fill="none" stroke="#000000" d="M145.569,-407.2355C127.9828,-406.4103 56.8062,-402.0912 43.5,-385.8 38.1626,-379.2653 37.9477,-370.6682 39.817,-362.3989"/>
<polygon fill="#000000" stroke="#000000" points="43.2268,-363.226 42.9266,-352.6354 36.5569,-361.1017 43.2268,-363.226"/>
<text text-anchor="middle" x="89.5" y="-374.6" font-family="Times,serif" font-size="14.00" fill="#000000">bam_pair_ch</text>
</g>
<!-- p9 -->
<g id="node10" class="node">
<title>p9</title>
<ellipse fill="none" stroke="#000000" cx="102.5" cy="-189.8" rx="88.2844" ry="18"/>
<text text-anchor="middle" x="102.5" y="-186.1" font-family="Times,serif" font-size="14.00" fill="#000000">GatherVcfs_step</text>
</g>
<!-- p3&#45;&gt;p9 -->
<g id="edge12" class="edge">
<title>p3&#45;&gt;p9</title>
<path fill="none" stroke="#000000" d="M149.1149,-403.8811C147.0209,-385.2275 136.3621,-296.1089 116.5,-225.8 115.7138,-223.017 114.7952,-220.15 113.8111,-217.3063"/>
<polygon fill="#000000" stroke="#000000" points="117.074,-216.0386 110.3103,-207.8837 110.5122,-218.4766 117.074,-216.0386"/>
<text text-anchor="middle" x="178.5" y="-287.6" font-family="Times,serif" font-size="14.00" fill="#000000">bam_pair_ch</text>
</g>
<!-- p16 -->
<g id="node16" class="node">
<title>p16</title>
<ellipse fill="none" stroke="#000000" cx="183.5" cy="-58.6" rx="143.7746" ry="18"/>
<text text-anchor="middle" x="183.5" y="-54.9" font-family="Times,serif" font-size="14.00" fill="#000000">LearnReadOrientationModel</text>
</g>
<!-- p3&#45;&gt;p16 -->
<g id="edge19" class="edge">
<title>p3&#45;&gt;p16</title>
<path fill="none" stroke="#000000" d="M153.0601,-406.8214C171.6262,-403.5836 256.5,-385.9832 256.5,-334.8 256.5,-334.8 256.5,-334.8 256.5,-131.2 256.5,-113.7839 253.6415,-107.9861 242.5,-94.6 238.6643,-89.9915 234.0781,-85.8105 229.1806,-82.0657"/>
<polygon fill="#000000" stroke="#000000" points="230.9287,-79.0181 220.7219,-76.1768 226.9291,-84.763 230.9287,-79.0181"/>
<text text-anchor="middle" x="302.5" y="-229.6" font-family="Times,serif" font-size="14.00" fill="#000000">bam_pair_ch</text>
</g>
<!-- p6 -->
<g id="node7" class="node">
<title>p6</title>
<ellipse fill="none" stroke="#000000" cx="77.5" cy="-262.3" rx="3.5" ry="3.5"/>
<text text-anchor="middle" x="49.5" y="-269.6" font-family="Times,serif" font-size="14.00" fill="#000000">collect</text>
</g>
<!-- p5&#45;&gt;p6 -->
<g id="edge6" class="edge">
<title>p5&#45;&gt;p6</title>
<path fill="none" stroke="#000000" d="M58.6798,-316.8786C63.1012,-304.0565 68.9543,-287.0827 72.9519,-275.4895"/>
<polygon fill="#000000" stroke="#000000" points="76.3572,-276.3504 76.3084,-265.7557 69.7396,-274.0684 76.3572,-276.3504"/>
</g>
<!-- p7 -->
<g id="node8" class="node">
<title>p7</title>
<ellipse fill="none" stroke="#000000" cx="102.5" cy="-262.3" rx="3.5" ry="3.5"/>
<text text-anchor="middle" x="74.5" y="-247.6" font-family="Times,serif" font-size="14.00" fill="#000000">collect</text>
</g>
<!-- p5&#45;&gt;p7 -->
<g id="edge7" class="edge">
<title>p5&#45;&gt;p7</title>
<path fill="none" stroke="#000000" d="M66.8854,-317.1677C71.3925,-311.419 76.2868,-304.9355 80.5,-298.8 85.9514,-290.8614 91.5464,-281.5601 95.7299,-274.3339"/>
<polygon fill="#000000" stroke="#000000" points="98.9049,-275.8302 100.7938,-265.4051 92.816,-272.3769 98.9049,-275.8302"/>
</g>
<!-- p8 -->
<g id="node9" class="node">
<title>p8</title>
<ellipse fill="none" stroke="#000000" cx="52.5" cy="-262.3" rx="3.5" ry="3.5"/>
<text text-anchor="middle" x="24.5" y="-247.6" font-family="Times,serif" font-size="14.00" fill="#000000">collect</text>
</g>
<!-- p5&#45;&gt;p8 -->
<g id="edge8" class="edge">
<title>p5&#45;&gt;p8</title>
<path fill="none" stroke="#000000" d="M52.5,-316.5052C52.5,-303.9364 52.5,-287.5149 52.5,-276.0543"/>
<polygon fill="#000000" stroke="#000000" points="56.0001,-275.9824 52.5,-265.9824 49.0001,-275.9825 56.0001,-275.9824"/>
</g>
<!-- p4 -->
<g id="node6" class="node">
<title>p4</title>
<ellipse fill="#000000" stroke="#000000" cx="9.5" cy="-407.4" rx="3.6" ry="3.6"/>
</g>
<!-- p4&#45;&gt;p5 -->
<g id="edge5" class="edge">
<title>p4&#45;&gt;p5</title>
<path fill="none" stroke="#000000" d="M10.4669,-403.8046C12.3701,-397.0496 16.9901,-382.1243 23.5,-370.8 25.6149,-367.121 28.0933,-363.426 30.6949,-359.8785"/>
<polygon fill="#000000" stroke="#000000" points="33.4903,-361.9853 36.8754,-351.9458 27.9684,-357.6831 33.4903,-361.9853"/>
</g>
<!-- p6&#45;&gt;p9 -->
<g id="edge9" class="edge">
<title>p6&#45;&gt;p9</title>
<path fill="none" stroke="#000000" d="M78.7058,-258.8032C81.2661,-251.3782 87.4556,-233.4288 92.8799,-217.6983"/>
<polygon fill="#000000" stroke="#000000" points="96.3369,-218.4092 96.2881,-207.8145 89.7193,-216.1272 96.3369,-218.4092"/>
</g>
<!-- p7&#45;&gt;p9 -->
<g id="edge10" class="edge">
<title>p7&#45;&gt;p9</title>
<path fill="none" stroke="#000000" d="M102.5,-258.4021C102.5,-250.8027 102.5,-233.403 102.5,-218.0295"/>
<polygon fill="#000000" stroke="#000000" points="106.0001,-217.8553 102.5,-207.8553 99.0001,-217.8553 106.0001,-217.8553"/>
</g>
<!-- p8&#45;&gt;p9 -->
<g id="edge11" class="edge">
<title>p8&#45;&gt;p9</title>
<path fill="none" stroke="#000000" d="M54.6484,-259.1848C59.7268,-251.8211 72.8896,-232.7351 84.127,-216.4409"/>
<polygon fill="#000000" stroke="#000000" points="87.3122,-217.9871 90.1083,-207.7679 81.5497,-214.013 87.3122,-217.9871"/>
</g>
<!-- p13 -->
<g id="node11" class="node">
<title>p13</title>
<ellipse fill="#000000" stroke="#000000" cx="105.5" cy="-131.2" rx="1.8" ry="1.8"/>
</g>
<!-- p9&#45;&gt;p13 -->
<g id="edge13" class="edge">
<title>p9&#45;&gt;p13</title>
<path fill="none" stroke="#000000" d="M103.4328,-171.5798C103.9057,-162.3425 104.4668,-151.3821 104.885,-143.2128"/>
<polygon fill="#000000" stroke="#000000" points="108.3865,-143.272 105.4024,-133.1061 101.3956,-142.914 108.3865,-143.272"/>
</g>
<!-- p12 -->
<g id="node12" class="node">
<title>p12</title>
<ellipse fill="#000000" stroke="#000000" cx="55.5" cy="-131.2" rx="1.8" ry="1.8"/>
</g>
<!-- p9&#45;&gt;p12 -->
<g id="edge14" class="edge">
<title>p9&#45;&gt;p12</title>
<path fill="none" stroke="#000000" d="M88.1431,-171.8997C79.9431,-161.6759 69.9835,-149.2582 63.2383,-140.8481"/>
<polygon fill="#000000" stroke="#000000" points="65.7747,-138.4165 56.7876,-132.8054 60.314,-142.7962 65.7747,-138.4165"/>
</g>
<!-- p11 -->
<g id="node13" class="node">
<title>p11</title>
<ellipse fill="#000000" stroke="#000000" cx="80.5" cy="-131.2" rx="1.8" ry="1.8"/>
</g>
<!-- p9&#45;&gt;p11 -->
<g id="edge15" class="edge">
<title>p9&#45;&gt;p11</title>
<path fill="none" stroke="#000000" d="M95.6597,-171.5798C92.1081,-162.1199 87.8782,-150.8529 84.79,-142.6271"/>
<polygon fill="#000000" stroke="#000000" points="88.0071,-141.2379 81.2156,-133.1061 81.4537,-143.6982 88.0071,-141.2379"/>
</g>
<!-- p14 -->
<g id="node14" class="node">
<title>p14</title>
<ellipse fill="none" stroke="#000000" cx="131.5" cy="-131.2" rx="3.5" ry="3.5"/>
<text text-anchor="middle" x="103.5" y="-138.5" font-family="Times,serif" font-size="14.00" fill="#000000">collect</text>
</g>
<!-- p9&#45;&gt;p14 -->
<g id="edge16" class="edge">
<title>p9&#45;&gt;p14</title>
<path fill="none" stroke="#000000" d="M111.5168,-171.5798C115.9978,-162.5252 121.2981,-151.8149 125.3136,-143.7007"/>
<polygon fill="#000000" stroke="#000000" points="128.497,-145.1592 129.7955,-134.6442 122.2232,-142.0544 128.497,-145.1592"/>
</g>
<!-- p10 -->
<g id="node15" class="node">
<title>p10</title>
<ellipse fill="#000000" stroke="#000000" cx="155.5" cy="-131.2" rx="1.8" ry="1.8"/>
</g>
<!-- p9&#45;&gt;p10 -->
<g id="edge17" class="edge">
<title>p9&#45;&gt;p10</title>
<path fill="none" stroke="#000000" d="M118.6897,-171.8997C128.142,-161.4487 139.6676,-148.7052 147.2755,-140.2935"/>
<polygon fill="#000000" stroke="#000000" points="149.9359,-142.5698 154.048,-132.8054 144.7443,-137.8743 149.9359,-142.5698"/>
</g>
<!-- p14&#45;&gt;p16 -->
<g id="edge18" class="edge">
<title>p14&#45;&gt;p16</title>
<path fill="none" stroke="#000000" d="M133.7344,-128.0805C139.0648,-120.6384 152.9594,-101.2394 164.7162,-84.8251"/>
<polygon fill="#000000" stroke="#000000" points="167.6351,-86.7605 170.6127,-76.5927 161.9442,-82.6844 167.6351,-86.7605"/>
</g>
<!-- p17 -->
<g id="node18" class="node">
<title>p17</title>
<ellipse fill="#000000" stroke="#000000" cx="183.5" cy="-1.8" rx="1.8" ry="1.8"/>
</g>
<!-- p16&#45;&gt;p17 -->
<g id="edge21" class="edge">
<title>p16&#45;&gt;p17</title>
<path fill="none" stroke="#000000" d="M183.5,-40.3155C183.5,-31.6139 183.5,-21.4551 183.5,-13.756"/>
<polygon fill="#000000" stroke="#000000" points="187.0001,-13.6036 183.5,-3.6036 180.0001,-13.6037 187.0001,-13.6036"/>
</g>
<!-- p15 -->
<g id="node17" class="node">
<title>p15</title>
<ellipse fill="#000000" stroke="#000000" cx="183.5" cy="-131.2" rx="3.6" ry="3.6"/>
</g>
<!-- p15&#45;&gt;p16 -->
<g id="edge20" class="edge">
<title>p15&#45;&gt;p16</title>
<path fill="none" stroke="#000000" d="M183.5,-127.2967C183.5,-119.6869 183.5,-102.2632 183.5,-86.8684"/>
<polygon fill="#000000" stroke="#000000" points="187.0001,-86.6802 183.5,-76.6802 180.0001,-86.6802 187.0001,-86.6802"/>
<text text-anchor="middle" x="211" y="-98.4" font-family="Times,serif" font-size="14.00" fill="#000000">outdirA</text>
</g>
</g>
</svg>
