<?xml version="1.0" encoding="UTF-8" standalone="no"?>
<!DOCTYPE svg PUBLIC "-//W3C//DTD SVG 1.1//EN"
 "http://www.w3.org/Graphics/SVG/1.1/DTD/svg11.dtd">
<!-- Generated by graphviz version 2.40.1 (0)
 -->
<!-- Title: GermlineStructuralV_dag_20231205_145036 Pages: 1 -->
<svg width="332pt" height="450pt"
 viewBox="0.00 0.00 331.99 450.00" xmlns="http://www.w3.org/2000/svg" xmlns:xlink="http://www.w3.org/1999/xlink">
<g id="graph0" class="graph" transform="scale(1 1) rotate(0) translate(4 446)">
<title>GermlineStructuralV_dag_20231205_145036</title>
<polygon fill="#ffffff" stroke="transparent" points="-4,4 -4,-446 327.9922,-446 327.9922,4 -4,4"/>
<!-- p0 -->
<g id="node1" class="node">
<title>p0</title>
<ellipse fill="#000000" stroke="#000000" cx="133.6" cy="-423.4" rx="3.6" ry="3.6"/>
<text text-anchor="middle" x="65" y="-430.8" font-family="Times,serif" font-size="14.00" fill="#000000">Channel.fromPath</text>
</g>
<!-- p1 -->
<g id="node2" class="node">
<title>p1</title>
<ellipse fill="none" stroke="#000000" cx="133.6" cy="-364.8" rx="68.7879" ry="18"/>
<text text-anchor="middle" x="133.6" y="-361.1" font-family="Times,serif" font-size="14.00" fill="#000000">checkInputs</text>
</g>
<!-- p0&#45;&gt;p1 -->
<g id="edge1" class="edge">
<title>p0&#45;&gt;p1</title>
<path fill="none" stroke="#000000" d="M133.6,-419.5551C133.6,-414.0551 133.6,-403.4505 133.6,-393.0272"/>
<polygon fill="#000000" stroke="#000000" points="137.1001,-392.8601 133.6,-382.8601 130.1001,-392.8601 137.1001,-392.8601"/>
</g>
<!-- p2 -->
<g id="node3" class="node">
<title>p2</title>
<ellipse fill="none" stroke="#000000" cx="133.6" cy="-306.3" rx="3.5" ry="3.5"/>
<text text-anchor="middle" x="100.6" y="-313.6" font-family="Times,serif" font-size="14.00" fill="#000000">splitCsv</text>
</g>
<!-- p1&#45;&gt;p2 -->
<g id="edge2" class="edge">
<title>p1&#45;&gt;p2</title>
<path fill="none" stroke="#000000" d="M133.6,-346.6109C133.6,-338.1587 133.6,-328.2613 133.6,-320.389"/>
<polygon fill="#000000" stroke="#000000" points="137.1001,-320.1836 133.6,-310.1837 130.1001,-320.1837 137.1001,-320.1836"/>
</g>
<!-- p3 -->
<g id="node4" class="node">
<title>p3</title>
<ellipse fill="none" stroke="#000000" cx="133.6" cy="-262.2" rx="3.5" ry="3.5"/>
<text text-anchor="middle" x="114.6" y="-269.5" font-family="Times,serif" font-size="14.00" fill="#000000">map</text>
</g>
<!-- p2&#45;&gt;p3 -->
<g id="edge3" class="edge">
<title>p2&#45;&gt;p3</title>
<path fill="none" stroke="#000000" d="M133.6,-302.5401C133.6,-296.7469 133.6,-285.344 133.6,-276.1354"/>
<polygon fill="#000000" stroke="#000000" points="137.1001,-275.9504 133.6,-265.9504 130.1001,-275.9505 137.1001,-275.9504"/>
</g>
<!-- p5 -->
<g id="node5" class="node">
<title>p5</title>
<ellipse fill="none" stroke="#000000" cx="248.6" cy="-189.6" rx="50.0912" ry="18"/>
<text text-anchor="middle" x="248.6" y="-185.9" font-family="Times,serif" font-size="14.00" fill="#000000">mutect2</text>
</g>
<!-- p3&#45;&gt;p5 -->
<g id="edge4" class="edge">
<title>p3&#45;&gt;p5</title>
<path fill="none" stroke="#000000" d="M134.9307,-258.6564C137.8062,-251.4504 145.2684,-234.9784 156.6,-225.6 168.3019,-215.9151 182.9178,-208.6227 197.0311,-203.2265"/>
<polygon fill="#000000" stroke="#000000" points="198.4351,-206.4418 206.6795,-199.7875 196.0848,-199.8481 198.4351,-206.4418"/>
<text text-anchor="middle" x="202.6" y="-229.4" font-family="Times,serif" font-size="14.00" fill="#000000">bam_pair_ch</text>
</g>
<!-- p9 -->
<g id="node10" class="node">
<title>p9</title>
<ellipse fill="none" stroke="#000000" cx="235.6" cy="-58.6" rx="88.2844" ry="18"/>
<text text-anchor="middle" x="235.6" y="-54.9" font-family="Times,serif" font-size="14.00" fill="#000000">GatherVcfs_step</text>
</g>
<!-- p3&#45;&gt;p9 -->
<g id="edge12" class="edge">
<title>p3&#45;&gt;p9</title>
<path fill="none" stroke="#000000" d="M132.6304,-258.5006C128.7507,-242.9035 115.5431,-181.3467 136.6,-138.6 148.787,-113.8597 172.6209,-94.2282 193.8491,-80.6043"/>
<polygon fill="#000000" stroke="#000000" points="195.7565,-83.5402 202.4378,-75.3176 192.0871,-77.579 195.7565,-83.5402"/>
<text text-anchor="middle" x="182.6" y="-142.4" font-family="Times,serif" font-size="14.00" fill="#000000">bam_pair_ch</text>
</g>
<!-- p6 -->
<g id="node7" class="node">
<title>p6</title>
<ellipse fill="none" stroke="#000000" cx="273.6" cy="-117.1" rx="3.5" ry="3.5"/>
<text text-anchor="middle" x="245.6" y="-124.4" font-family="Times,serif" font-size="14.00" fill="#000000">collect</text>
</g>
<!-- p5&#45;&gt;p6 -->
<g id="edge6" class="edge">
<title>p5&#45;&gt;p6</title>
<path fill="none" stroke="#000000" d="M254.7798,-171.6786C259.2012,-158.8565 265.0543,-141.8827 269.0519,-130.2895"/>
<polygon fill="#000000" stroke="#000000" points="272.4572,-131.1504 272.4084,-120.5557 265.8396,-128.8684 272.4572,-131.1504"/>
</g>
<!-- p7 -->
<g id="node8" class="node">
<title>p7</title>
<ellipse fill="none" stroke="#000000" cx="223.6" cy="-117.1" rx="3.5" ry="3.5"/>
<text text-anchor="middle" x="195.6" y="-124.4" font-family="Times,serif" font-size="14.00" fill="#000000">collect</text>
</g>
<!-- p5&#45;&gt;p7 -->
<g id="edge7" class="edge">
<title>p5&#45;&gt;p7</title>
<path fill="none" stroke="#000000" d="M242.4202,-171.6786C237.9988,-158.8565 232.1457,-141.8827 228.1481,-130.2895"/>
<polygon fill="#000000" stroke="#000000" points="231.3604,-128.8684 224.7916,-120.5557 224.7428,-131.1504 231.3604,-128.8684"/>
</g>
<!-- p8 -->
<g id="node9" class="node">
<title>p8</title>
<ellipse fill="none" stroke="#000000" cx="248.6" cy="-117.1" rx="3.5" ry="3.5"/>
<text text-anchor="middle" x="220.6" y="-102.4" font-family="Times,serif" font-size="14.00" fill="#000000">collect</text>
</g>
<!-- p5&#45;&gt;p8 -->
<g id="edge8" class="edge">
<title>p5&#45;&gt;p8</title>
<path fill="none" stroke="#000000" d="M248.6,-171.3052C248.6,-158.7364 248.6,-142.3149 248.6,-130.8543"/>
<polygon fill="#000000" stroke="#000000" points="252.1001,-130.7824 248.6,-120.7824 245.1001,-130.7825 252.1001,-130.7824"/>
</g>
<!-- p4 -->
<g id="node6" class="node">
<title>p4</title>
<ellipse fill="#000000" stroke="#000000" cx="256.6" cy="-262.2" rx="3.6" ry="3.6"/>
</g>
<!-- p4&#45;&gt;p5 -->
<g id="edge5" class="edge">
<title>p4&#45;&gt;p5</title>
<path fill="none" stroke="#000000" d="M256.1699,-258.2967C255.3313,-250.6869 253.4114,-233.2632 251.715,-217.8684"/>
<polygon fill="#000000" stroke="#000000" points="255.1666,-217.2367 250.5923,-207.6802 248.2088,-218.0034 255.1666,-217.2367"/>
</g>
<!-- p6&#45;&gt;p9 -->
<g id="edge9" class="edge">
<title>p6&#45;&gt;p9</title>
<path fill="none" stroke="#000000" d="M271.557,-113.9548C267.9698,-108.4325 260.2166,-96.4966 252.8249,-85.1172"/>
<polygon fill="#000000" stroke="#000000" points="255.7003,-83.1187 247.3178,-76.6392 249.8301,-86.9319 255.7003,-83.1187"/>
</g>
<!-- p7&#45;&gt;p9 -->
<g id="edge10" class="edge">
<title>p7&#45;&gt;p9</title>
<path fill="none" stroke="#000000" d="M224.3147,-113.6158C225.4236,-108.21 227.6597,-97.3089 229.8511,-86.6259"/>
<polygon fill="#000000" stroke="#000000" points="233.3192,-87.1361 231.9002,-76.6368 226.462,-85.7295 233.3192,-87.1361"/>
</g>
<!-- p8&#45;&gt;p9 -->
<g id="edge11" class="edge">
<title>p8&#45;&gt;p9</title>
<path fill="none" stroke="#000000" d="M247.8257,-113.6158C246.6245,-108.21 244.202,-97.3089 241.828,-86.6259"/>
<polygon fill="#000000" stroke="#000000" points="245.1942,-85.6393 239.6082,-76.6368 238.3609,-87.1579 245.1942,-85.6393"/>
</g>
<!-- p13 -->
<g id="node11" class="node">
<title>p13</title>
<ellipse fill="#000000" stroke="#000000" cx="198.6" cy="-1.8" rx="1.8" ry="1.8"/>
</g>
<!-- p9&#45;&gt;p13 -->
<g id="edge13" class="edge">
<title>p9&#45;&gt;p13</title>
<path fill="none" stroke="#000000" d="M223.893,-40.6281C217.6765,-31.085 210.2716,-19.7175 205.0859,-11.7568"/>
<polygon fill="#000000" stroke="#000000" points="207.9806,-9.7879 199.5897,-3.3193 202.1152,-13.6087 207.9806,-9.7879"/>
</g>
<!-- p12 -->
<g id="node12" class="node">
<title>p12</title>
<ellipse fill="#000000" stroke="#000000" cx="223.6" cy="-1.8" rx="1.8" ry="1.8"/>
</g>
<!-- p9&#45;&gt;p12 -->
<g id="edge14" class="edge">
<title>p9&#45;&gt;p12</title>
<path fill="none" stroke="#000000" d="M231.7371,-40.3155C229.876,-31.5065 227.6994,-21.204 226.0659,-13.472"/>
<polygon fill="#000000" stroke="#000000" points="229.4726,-12.6642 223.981,-3.6036 222.6238,-14.1112 229.4726,-12.6642"/>
</g>
<!-- p11 -->
<g id="node13" class="node">
<title>p11</title>
<ellipse fill="#000000" stroke="#000000" cx="248.6" cy="-1.8" rx="1.8" ry="1.8"/>
</g>
<!-- p9&#45;&gt;p11 -->
<g id="edge15" class="edge">
<title>p9&#45;&gt;p11</title>
<path fill="none" stroke="#000000" d="M239.7848,-40.3155C241.801,-31.5065 244.1589,-21.204 245.9286,-13.472"/>
<polygon fill="#000000" stroke="#000000" points="249.3679,-14.1325 248.1872,-3.6036 242.5443,-12.5707 249.3679,-14.1325"/>
</g>
<!-- p10 -->
<g id="node14" class="node">
<title>p10</title>
<ellipse fill="#000000" stroke="#000000" cx="273.6" cy="-1.8" rx="1.8" ry="1.8"/>
</g>
<!-- p9&#45;&gt;p10 -->
<g id="edge16" class="edge">
<title>p9&#45;&gt;p10</title>
<path fill="none" stroke="#000000" d="M247.6234,-40.6281C254.008,-31.085 261.6129,-19.7175 266.9388,-11.7568"/>
<polygon fill="#000000" stroke="#000000" points="269.9321,-13.577 272.5836,-3.3193 264.114,-9.6846 269.9321,-13.577"/>
</g>
</g>
</svg>
