<?xml version="1.0" encoding="UTF-8" standalone="no"?>
<!DOCTYPE svg PUBLIC "-//W3C//DTD SVG 1.1//EN"
 "http://www.w3.org/Graphics/SVG/1.1/DTD/svg11.dtd">
<!-- Generated by graphviz version 2.40.1 (0)
 -->
<!-- Title: GermlineStructuralV_dag_20231205_124232 Pages: 1 -->
<svg width="350pt" height="595pt"
 viewBox="0.00 0.00 349.84 595.40" xmlns="http://www.w3.org/2000/svg" xmlns:xlink="http://www.w3.org/1999/xlink">
<g id="graph0" class="graph" transform="scale(1 1) rotate(0) translate(4 591.4)">
<title>GermlineStructuralV_dag_20231205_124232</title>
<polygon fill="#ffffff" stroke="transparent" points="-4,4 -4,-591.4 345.8368,-591.4 345.8368,4 -4,4"/>
<!-- p0 -->
<g id="node1" class="node">
<title>p0</title>
<ellipse fill="#000000" stroke="#000000" cx="159.7912" cy="-568.8" rx="3.6" ry="3.6"/>
<text text-anchor="middle" x="91.1912" y="-576.2" font-family="Times,serif" font-size="14.00" fill="#000000">Channel.fromPath</text>
</g>
<!-- p1 -->
<g id="node2" class="node">
<title>p1</title>
<ellipse fill="none" stroke="#000000" cx="159.7912" cy="-510.2" rx="68.7879" ry="18"/>
<text text-anchor="middle" x="159.7912" y="-506.5" font-family="Times,serif" font-size="14.00" fill="#000000">checkInputs</text>
</g>
<!-- p0&#45;&gt;p1 -->
<g id="edge1" class="edge">
<title>p0&#45;&gt;p1</title>
<path fill="none" stroke="#000000" d="M159.7912,-564.9551C159.7912,-559.4551 159.7912,-548.8505 159.7912,-538.4272"/>
<polygon fill="#000000" stroke="#000000" points="163.2913,-538.2601 159.7912,-528.2601 156.2913,-538.2601 163.2913,-538.2601"/>
</g>
<!-- p2 -->
<g id="node3" class="node">
<title>p2</title>
<ellipse fill="none" stroke="#000000" cx="159.7912" cy="-451.7" rx="3.5" ry="3.5"/>
<text text-anchor="middle" x="126.7912" y="-459" font-family="Times,serif" font-size="14.00" fill="#000000">splitCsv</text>
</g>
<!-- p1&#45;&gt;p2 -->
<g id="edge2" class="edge">
<title>p1&#45;&gt;p2</title>
<path fill="none" stroke="#000000" d="M159.7912,-492.0109C159.7912,-483.5587 159.7912,-473.6613 159.7912,-465.789"/>
<polygon fill="#000000" stroke="#000000" points="163.2913,-465.5836 159.7912,-455.5837 156.2913,-465.5837 163.2913,-465.5836"/>
</g>
<!-- p3 -->
<g id="node4" class="node">
<title>p3</title>
<ellipse fill="none" stroke="#000000" cx="159.7912" cy="-407.6" rx="3.5" ry="3.5"/>
<text text-anchor="middle" x="140.7912" y="-414.9" font-family="Times,serif" font-size="14.00" fill="#000000">map</text>
</g>
<!-- p2&#45;&gt;p3 -->
<g id="edge3" class="edge">
<title>p2&#45;&gt;p3</title>
<path fill="none" stroke="#000000" d="M159.7912,-447.9401C159.7912,-442.1469 159.7912,-430.744 159.7912,-421.5354"/>
<polygon fill="#000000" stroke="#000000" points="163.2913,-421.3504 159.7912,-411.3504 156.2913,-421.3505 163.2913,-421.3504"/>
</g>
<!-- p5 -->
<g id="node5" class="node">
<title>p5</title>
<ellipse fill="none" stroke="#000000" cx="291.7912" cy="-335" rx="50.0912" ry="18"/>
<text text-anchor="middle" x="291.7912" y="-331.3" font-family="Times,serif" font-size="14.00" fill="#000000">mutect2</text>
</g>
<!-- p3&#45;&gt;p5 -->
<g id="edge4" class="edge">
<title>p3&#45;&gt;p5</title>
<path fill="none" stroke="#000000" d="M162.402,-404.5408C168.386,-397.693 183.8114,-380.9522 199.7912,-371 213.2866,-362.5951 229.071,-355.5569 243.7173,-349.9977"/>
<polygon fill="#000000" stroke="#000000" points="244.9479,-353.2745 253.1422,-346.5585 242.5483,-346.6986 244.9479,-353.2745"/>
<text text-anchor="middle" x="245.7912" y="-374.8" font-family="Times,serif" font-size="14.00" fill="#000000">bam_pair_ch</text>
</g>
<!-- p10 -->
<g id="node10" class="node">
<title>p10</title>
<ellipse fill="none" stroke="#000000" cx="176.7912" cy="-189.8" rx="88.2844" ry="18"/>
<text text-anchor="middle" x="176.7912" y="-186.1" font-family="Times,serif" font-size="14.00" fill="#000000">GatherVcfs_step</text>
</g>
<!-- p3&#45;&gt;p10 -->
<g id="edge10" class="edge">
<title>p3&#45;&gt;p10</title>
<path fill="none" stroke="#000000" d="M159.3374,-403.7409C157.6201,-388.4904 151.8606,-330.9641 156.7912,-284 159.1516,-261.5174 164.5981,-236.505 169.2122,-217.9073"/>
<polygon fill="#000000" stroke="#000000" points="172.6515,-218.5846 171.7338,-208.0296 165.869,-216.8531 172.6515,-218.5846"/>
<text text-anchor="middle" x="202.7912" y="-287.8" font-family="Times,serif" font-size="14.00" fill="#000000">bam_pair_ch</text>
</g>
<!-- p14 -->
<g id="node14" class="node">
<title>p14</title>
<ellipse fill="none" stroke="#000000" cx="98.7912" cy="-58.6" rx="98.5829" ry="18"/>
<text text-anchor="middle" x="98.7912" y="-54.9" font-family="Times,serif" font-size="14.00" fill="#000000">MergeMutectStats</text>
</g>
<!-- p3&#45;&gt;p14 -->
<g id="edge15" class="edge">
<title>p3&#45;&gt;p14</title>
<path fill="none" stroke="#000000" d="M156.2312,-407.0214C137.665,-403.7836 52.7912,-386.1832 52.7912,-335 52.7912,-335 52.7912,-335 52.7912,-131.2 52.7912,-113.6536 62.4974,-96.9083 72.9926,-83.9304"/>
<polygon fill="#000000" stroke="#000000" points="75.6461,-86.2128 79.5496,-76.3632 70.3558,-81.6287 75.6461,-86.2128"/>
<text text-anchor="middle" x="98.7912" y="-229.6" font-family="Times,serif" font-size="14.00" fill="#000000">bam_pair_ch</text>
</g>
<!-- p8 -->
<g id="node7" class="node">
<title>p8</title>
<ellipse fill="none" stroke="#000000" cx="191.7912" cy="-262.4" rx="3.5" ry="3.5"/>
<text text-anchor="middle" x="163.7912" y="-269.7" font-family="Times,serif" font-size="14.00" fill="#000000">collect</text>
</g>
<!-- p5&#45;&gt;p8 -->
<g id="edge6" class="edge">
<title>p5&#45;&gt;p8</title>
<path fill="none" stroke="#000000" d="M281.8894,-317.28C274.987,-306.3504 264.8676,-292.7891 252.7912,-284 245.0461,-278.3631 220.5515,-270.6513 205.0592,-266.1303"/>
<polygon fill="#000000" stroke="#000000" points="205.9693,-262.7504 195.3934,-263.3822 204.055,-269.4836 205.9693,-262.7504"/>
</g>
<!-- p7 -->
<g id="node8" class="node">
<title>p7</title>
<ellipse fill="#000000" stroke="#000000" cx="291.7912" cy="-262.4" rx="1.8" ry="1.8"/>
</g>
<!-- p5&#45;&gt;p7 -->
<g id="edge7" class="edge">
<title>p5&#45;&gt;p7</title>
<path fill="none" stroke="#000000" d="M291.7912,-316.68C291.7912,-303.3955 291.7912,-285.813 291.7912,-274.3103"/>
<polygon fill="#000000" stroke="#000000" points="295.2913,-274.2218 291.7912,-264.2218 288.2913,-274.2219 295.2913,-274.2218"/>
</g>
<!-- p6 -->
<g id="node9" class="node">
<title>p6</title>
<ellipse fill="#000000" stroke="#000000" cx="316.7912" cy="-262.4" rx="1.8" ry="1.8"/>
</g>
<!-- p5&#45;&gt;p6 -->
<g id="edge8" class="edge">
<title>p5&#45;&gt;p6</title>
<path fill="none" stroke="#000000" d="M297.971,-317.0539C302.5935,-303.6302 308.7808,-285.6622 312.7767,-274.0582"/>
<polygon fill="#000000" stroke="#000000" points="316.2102,-274.837 316.1568,-264.2423 309.5916,-272.5579 316.2102,-274.837"/>
</g>
<!-- p4 -->
<g id="node6" class="node">
<title>p4</title>
<ellipse fill="#000000" stroke="#000000" cx="299.7912" cy="-407.6" rx="3.6" ry="3.6"/>
</g>
<!-- p4&#45;&gt;p5 -->
<g id="edge5" class="edge">
<title>p4&#45;&gt;p5</title>
<path fill="none" stroke="#000000" d="M299.3611,-403.6967C298.5226,-396.0869 296.6026,-378.6632 294.9062,-363.2684"/>
<polygon fill="#000000" stroke="#000000" points="298.3579,-362.6367 293.7835,-353.0802 291.4,-363.4034 298.3579,-362.6367"/>
</g>
<!-- p8&#45;&gt;p10 -->
<g id="edge9" class="edge">
<title>p8&#45;&gt;p10</title>
<path fill="none" stroke="#000000" d="M191.0678,-258.8984C189.5316,-251.4632 185.8179,-233.489 182.5633,-217.7368"/>
<polygon fill="#000000" stroke="#000000" points="185.9694,-216.9243 180.5184,-207.8393 179.1142,-218.3407 185.9694,-216.9243"/>
</g>
<!-- p12 -->
<g id="node12" class="node">
<title>p12</title>
<ellipse fill="none" stroke="#000000" cx="106.7912" cy="-131.2" rx="3.5" ry="3.5"/>
<text text-anchor="middle" x="78.7912" y="-138.5" font-family="Times,serif" font-size="14.00" fill="#000000">collect</text>
</g>
<!-- p10&#45;&gt;p12 -->
<g id="edge12" class="edge">
<title>p10&#45;&gt;p12</title>
<path fill="none" stroke="#000000" d="M155.7889,-172.2181C143.0934,-161.5901 127.456,-148.4993 117.3125,-140.0078"/>
<polygon fill="#000000" stroke="#000000" points="119.4606,-137.2416 109.5461,-133.5062 114.9673,-142.6091 119.4606,-137.2416"/>
</g>
<!-- p11 -->
<g id="node13" class="node">
<title>p11</title>
<ellipse fill="#000000" stroke="#000000" cx="176.7912" cy="-131.2" rx="1.8" ry="1.8"/>
</g>
<!-- p10&#45;&gt;p11 -->
<g id="edge13" class="edge">
<title>p10&#45;&gt;p11</title>
<path fill="none" stroke="#000000" d="M176.7912,-171.5798C176.7912,-162.3425 176.7912,-151.3821 176.7912,-143.2128"/>
<polygon fill="#000000" stroke="#000000" points="180.2913,-143.106 176.7912,-133.1061 173.2913,-143.1061 180.2913,-143.106"/>
</g>
<!-- p9 -->
<g id="node11" class="node">
<title>p9</title>
<ellipse fill="#000000" stroke="#000000" cx="217.7912" cy="-262.4" rx="3.6" ry="3.6"/>
</g>
<!-- p9&#45;&gt;p10 -->
<g id="edge11" class="edge">
<title>p9&#45;&gt;p10</title>
<path fill="none" stroke="#000000" d="M215.8137,-258.8984C211.5348,-251.3216 201.0752,-232.8005 192.0613,-216.8392"/>
<polygon fill="#000000" stroke="#000000" points="194.9438,-214.8257 186.9787,-207.8393 188.8486,-218.2679 194.9438,-214.8257"/>
<text text-anchor="middle" x="232.2912" y="-229.6" font-family="Times,serif" font-size="14.00" fill="#000000">outdirA</text>
</g>
<!-- p12&#45;&gt;p14 -->
<g id="edge14" class="edge">
<title>p12&#45;&gt;p14</title>
<path fill="none" stroke="#000000" d="M106.4054,-127.6984C105.5939,-120.334 103.6431,-102.6304 101.9193,-86.9875"/>
<polygon fill="#000000" stroke="#000000" points="105.3534,-86.1958 100.779,-76.6393 98.3955,-86.9626 105.3534,-86.1958"/>
</g>
<!-- p16 -->
<g id="node16" class="node">
<title>p16</title>
<ellipse fill="#000000" stroke="#000000" cx="86.7912" cy="-1.8" rx="1.8" ry="1.8"/>
</g>
<!-- p14&#45;&gt;p16 -->
<g id="edge17" class="edge">
<title>p14&#45;&gt;p16</title>
<path fill="none" stroke="#000000" d="M94.9283,-40.3155C93.0673,-31.5065 90.8907,-21.204 89.2571,-13.472"/>
<polygon fill="#000000" stroke="#000000" points="92.6638,-12.6642 87.1723,-3.6036 85.815,-14.1112 92.6638,-12.6642"/>
</g>
<!-- p15 -->
<g id="node17" class="node">
<title>p15</title>
<ellipse fill="#000000" stroke="#000000" cx="111.7912" cy="-1.8" rx="1.8" ry="1.8"/>
</g>
<!-- p14&#45;&gt;p15 -->
<g id="edge18" class="edge">
<title>p14&#45;&gt;p15</title>
<path fill="none" stroke="#000000" d="M102.9761,-40.3155C104.9922,-31.5065 107.3502,-21.204 109.1198,-13.472"/>
<polygon fill="#000000" stroke="#000000" points="112.5591,-14.1325 111.3784,-3.6036 105.7355,-12.5707 112.5591,-14.1325"/>
</g>
<!-- p13 -->
<g id="node15" class="node">
<title>p13</title>
<ellipse fill="#000000" stroke="#000000" cx="131.7912" cy="-131.2" rx="3.6" ry="3.6"/>
</g>
<!-- p13&#45;&gt;p14 -->
<g id="edge16" class="edge">
<title>p13&#45;&gt;p14</title>
<path fill="none" stroke="#000000" d="M130.1996,-127.6984C126.7878,-120.1924 118.4938,-101.9457 111.2855,-86.0874"/>
<polygon fill="#000000" stroke="#000000" points="114.3153,-84.2947 106.9909,-76.6393 107.9427,-87.1914 114.3153,-84.2947"/>
<text text-anchor="middle" x="149.2912" y="-98.4" font-family="Times,serif" font-size="14.00" fill="#000000">outdirA</text>
</g>
</g>
</svg>
