<?xml version="1.0" encoding="UTF-8" standalone="no"?>
<!DOCTYPE svg PUBLIC "-//W3C//DTD SVG 1.1//EN"
 "http://www.w3.org/Graphics/SVG/1.1/DTD/svg11.dtd">
<!-- Generated by graphviz version 2.40.1 (0)
 -->
<!-- Title: GermlineStructuralV_dag_20231205_151704 Pages: 1 -->
<svg width="355pt" height="581pt"
 viewBox="0.00 0.00 354.50 581.00" xmlns="http://www.w3.org/2000/svg" xmlns:xlink="http://www.w3.org/1999/xlink">
<g id="graph0" class="graph" transform="scale(1 1) rotate(0) translate(4 577)">
<title>GermlineStructuralV_dag_20231205_151704</title>
<polygon fill="#ffffff" stroke="transparent" points="-4,4 -4,-577 350.5,-577 350.5,4 -4,4"/>
<!-- p0 -->
<g id="node1" class="node">
<title>p0</title>
<ellipse fill="#000000" stroke="#000000" cx="147.5" cy="-554.4" rx="3.6" ry="3.6"/>
<text text-anchor="middle" x="78.9" y="-561.8" font-family="Times,serif" font-size="14.00" fill="#000000">Channel.fromPath</text>
</g>
<!-- p1 -->
<g id="node2" class="node">
<title>p1</title>
<ellipse fill="none" stroke="#000000" cx="147.5" cy="-495.8" rx="68.7879" ry="18"/>
<text text-anchor="middle" x="147.5" y="-492.1" font-family="Times,serif" font-size="14.00" fill="#000000">checkInputs</text>
</g>
<!-- p0&#45;&gt;p1 -->
<g id="edge1" class="edge">
<title>p0&#45;&gt;p1</title>
<path fill="none" stroke="#000000" d="M147.5,-550.5551C147.5,-545.0551 147.5,-534.4505 147.5,-524.0272"/>
<polygon fill="#000000" stroke="#000000" points="151.0001,-523.8601 147.5,-513.8601 144.0001,-523.8601 151.0001,-523.8601"/>
</g>
<!-- p2 -->
<g id="node3" class="node">
<title>p2</title>
<ellipse fill="none" stroke="#000000" cx="147.5" cy="-437.3" rx="3.5" ry="3.5"/>
<text text-anchor="middle" x="114.5" y="-444.6" font-family="Times,serif" font-size="14.00" fill="#000000">splitCsv</text>
</g>
<!-- p1&#45;&gt;p2 -->
<g id="edge2" class="edge">
<title>p1&#45;&gt;p2</title>
<path fill="none" stroke="#000000" d="M147.5,-477.6109C147.5,-469.1587 147.5,-459.2613 147.5,-451.389"/>
<polygon fill="#000000" stroke="#000000" points="151.0001,-451.1836 147.5,-441.1837 144.0001,-451.1837 151.0001,-451.1836"/>
</g>
<!-- p3 -->
<g id="node4" class="node">
<title>p3</title>
<ellipse fill="none" stroke="#000000" cx="147.5" cy="-393.2" rx="3.5" ry="3.5"/>
<text text-anchor="middle" x="128.5" y="-400.5" font-family="Times,serif" font-size="14.00" fill="#000000">map</text>
</g>
<!-- p2&#45;&gt;p3 -->
<g id="edge3" class="edge">
<title>p2&#45;&gt;p3</title>
<path fill="none" stroke="#000000" d="M147.5,-433.5401C147.5,-427.7469 147.5,-416.344 147.5,-407.1354"/>
<polygon fill="#000000" stroke="#000000" points="151.0001,-406.9504 147.5,-396.9504 144.0001,-406.9505 151.0001,-406.9504"/>
</g>
<!-- p5 -->
<g id="node5" class="node">
<title>p5</title>
<ellipse fill="none" stroke="#000000" cx="52.5" cy="-320.6" rx="50.0912" ry="18"/>
<text text-anchor="middle" x="52.5" y="-316.9" font-family="Times,serif" font-size="14.00" fill="#000000">mutect2</text>
</g>
<!-- p3&#45;&gt;p5 -->
<g id="edge4" class="edge">
<title>p3&#45;&gt;p5</title>
<path fill="none" stroke="#000000" d="M143.569,-393.0355C125.9828,-392.2103 54.8062,-387.8912 41.5,-371.6 36.0638,-364.9444 36.1678,-356.2172 38.4522,-347.8681"/>
<polygon fill="#000000" stroke="#000000" points="41.7721,-348.9809 41.9342,-338.3873 35.2012,-346.5676 41.7721,-348.9809"/>
<text text-anchor="middle" x="87.5" y="-360.4" font-family="Times,serif" font-size="14.00" fill="#000000">bam_pair_ch</text>
</g>
<!-- p9 -->
<g id="node10" class="node">
<title>p9</title>
<ellipse fill="none" stroke="#000000" cx="102.5" cy="-175.6" rx="88.2844" ry="18"/>
<text text-anchor="middle" x="102.5" y="-171.9" font-family="Times,serif" font-size="14.00" fill="#000000">GatherVcfs_step</text>
</g>
<!-- p3&#45;&gt;p9 -->
<g id="edge12" class="edge">
<title>p3&#45;&gt;p9</title>
<path fill="none" stroke="#000000" d="M147.1666,-389.6802C145.3442,-371.0215 135.9497,-281.8815 116.5,-211.6 115.7287,-208.8128 114.8199,-205.9431 113.842,-203.0977"/>
<polygon fill="#000000" stroke="#000000" points="117.1061,-201.8334 110.3493,-193.6728 110.5423,-204.2659 117.1061,-201.8334"/>
<text text-anchor="middle" x="177.5" y="-273.4" font-family="Times,serif" font-size="14.00" fill="#000000">bam_pair_ch</text>
</g>
<!-- p15 -->
<g id="node16" class="node">
<title>p15</title>
<ellipse fill="none" stroke="#000000" cx="197.5" cy="-58.6" rx="143.7746" ry="18"/>
<text text-anchor="middle" x="197.5" y="-54.9" font-family="Times,serif" font-size="14.00" fill="#000000">LearnReadOrientationModel</text>
</g>
<!-- p3&#45;&gt;p15 -->
<g id="edge19" class="edge">
<title>p3&#45;&gt;p15</title>
<path fill="none" stroke="#000000" d="M151.0601,-392.6214C169.6262,-389.3836 254.5,-371.7832 254.5,-320.6 254.5,-320.6 254.5,-320.6 254.5,-117.1 254.5,-103.5402 246.5469,-91.9481 236.5822,-82.7457"/>
<polygon fill="#000000" stroke="#000000" points="238.5997,-79.8719 228.6684,-76.1814 234.1306,-85.2596 238.5997,-79.8719"/>
<text text-anchor="middle" x="300.5" y="-215.4" font-family="Times,serif" font-size="14.00" fill="#000000">bam_pair_ch</text>
</g>
<!-- p6 -->
<g id="node7" class="node">
<title>p6</title>
<ellipse fill="none" stroke="#000000" cx="77.5" cy="-248.1" rx="3.5" ry="3.5"/>
<text text-anchor="middle" x="49.5" y="-255.4" font-family="Times,serif" font-size="14.00" fill="#000000">collect</text>
</g>
<!-- p5&#45;&gt;p6 -->
<g id="edge6" class="edge">
<title>p5&#45;&gt;p6</title>
<path fill="none" stroke="#000000" d="M58.6798,-302.6786C63.1012,-289.8565 68.9543,-272.8827 72.9519,-261.2895"/>
<polygon fill="#000000" stroke="#000000" points="76.3572,-262.1504 76.3084,-251.5557 69.7396,-259.8684 76.3572,-262.1504"/>
</g>
<!-- p7 -->
<g id="node8" class="node">
<title>p7</title>
<ellipse fill="none" stroke="#000000" cx="102.5" cy="-248.1" rx="3.5" ry="3.5"/>
<text text-anchor="middle" x="74.5" y="-233.4" font-family="Times,serif" font-size="14.00" fill="#000000">collect</text>
</g>
<!-- p5&#45;&gt;p7 -->
<g id="edge7" class="edge">
<title>p5&#45;&gt;p7</title>
<path fill="none" stroke="#000000" d="M66.8854,-302.9677C71.3925,-297.219 76.2868,-290.7355 80.5,-284.6 85.9514,-276.6614 91.5464,-267.3601 95.7299,-260.1339"/>
<polygon fill="#000000" stroke="#000000" points="98.9049,-261.6302 100.7938,-251.2051 92.816,-258.1769 98.9049,-261.6302"/>
</g>
<!-- p8 -->
<g id="node9" class="node">
<title>p8</title>
<ellipse fill="none" stroke="#000000" cx="52.5" cy="-248.1" rx="3.5" ry="3.5"/>
<text text-anchor="middle" x="24.5" y="-233.4" font-family="Times,serif" font-size="14.00" fill="#000000">collect</text>
</g>
<!-- p5&#45;&gt;p8 -->
<g id="edge8" class="edge">
<title>p5&#45;&gt;p8</title>
<path fill="none" stroke="#000000" d="M52.5,-302.3052C52.5,-289.7364 52.5,-273.3149 52.5,-261.8543"/>
<polygon fill="#000000" stroke="#000000" points="56.0001,-261.7824 52.5,-251.7824 49.0001,-261.7825 56.0001,-261.7824"/>
</g>
<!-- p4 -->
<g id="node6" class="node">
<title>p4</title>
<ellipse fill="#000000" stroke="#000000" cx="7.5" cy="-393.2" rx="3.6" ry="3.6"/>
</g>
<!-- p4&#45;&gt;p5 -->
<g id="edge5" class="edge">
<title>p4&#45;&gt;p5</title>
<path fill="none" stroke="#000000" d="M8.4322,-389.5843C10.2777,-382.7955 14.8053,-367.816 21.5,-356.6 23.7352,-352.8553 26.3695,-349.1217 29.1427,-345.5544"/>
<polygon fill="#000000" stroke="#000000" points="32.0475,-347.5348 35.7432,-337.6054 26.6621,-343.063 32.0475,-347.5348"/>
</g>
<!-- p6&#45;&gt;p9 -->
<g id="edge9" class="edge">
<title>p6&#45;&gt;p9</title>
<path fill="none" stroke="#000000" d="M78.7058,-244.6032C81.2661,-237.1782 87.4556,-219.2288 92.8799,-203.4983"/>
<polygon fill="#000000" stroke="#000000" points="96.3369,-204.2092 96.2881,-193.6145 89.7193,-201.9272 96.3369,-204.2092"/>
</g>
<!-- p7&#45;&gt;p9 -->
<g id="edge10" class="edge">
<title>p7&#45;&gt;p9</title>
<path fill="none" stroke="#000000" d="M102.5,-244.2021C102.5,-236.6027 102.5,-219.203 102.5,-203.8295"/>
<polygon fill="#000000" stroke="#000000" points="106.0001,-203.6553 102.5,-193.6553 99.0001,-203.6553 106.0001,-203.6553"/>
</g>
<!-- p8&#45;&gt;p9 -->
<g id="edge11" class="edge">
<title>p8&#45;&gt;p9</title>
<path fill="none" stroke="#000000" d="M54.6484,-244.9848C59.7268,-237.6211 72.8896,-218.5351 84.127,-202.2409"/>
<polygon fill="#000000" stroke="#000000" points="87.3122,-203.7871 90.1083,-193.5679 81.5497,-199.813 87.3122,-203.7871"/>
</g>
<!-- p13 -->
<g id="node11" class="node">
<title>p13</title>
<ellipse fill="#000000" stroke="#000000" cx="115.5" cy="-117.1" rx="1.8" ry="1.8"/>
</g>
<!-- p9&#45;&gt;p13 -->
<g id="edge13" class="edge">
<title>p9&#45;&gt;p13</title>
<path fill="none" stroke="#000000" d="M106.542,-157.4109C108.616,-148.0782 111.0814,-136.9837 112.9003,-128.7987"/>
<polygon fill="#000000" stroke="#000000" points="116.3244,-129.524 115.0772,-119.0028 109.4911,-128.0054 116.3244,-129.524"/>
</g>
<!-- p12 -->
<g id="node12" class="node">
<title>p12</title>
<ellipse fill="#000000" stroke="#000000" cx="65.5" cy="-117.1" rx="1.8" ry="1.8"/>
</g>
<!-- p9&#45;&gt;p12 -->
<g id="edge14" class="edge">
<title>p9&#45;&gt;p12</title>
<path fill="none" stroke="#000000" d="M91.1977,-157.7302C84.8859,-147.7507 77.2497,-135.6773 71.9495,-127.2972"/>
<polygon fill="#000000" stroke="#000000" points="74.8171,-125.2833 66.5137,-118.7027 68.9011,-129.0251 74.8171,-125.2833"/>
</g>
<!-- p11 -->
<g id="node13" class="node">
<title>p11</title>
<ellipse fill="#000000" stroke="#000000" cx="90.5" cy="-117.1" rx="1.8" ry="1.8"/>
</g>
<!-- p9&#45;&gt;p11 -->
<g id="edge15" class="edge">
<title>p9&#45;&gt;p11</title>
<path fill="none" stroke="#000000" d="M98.7689,-157.4109C96.8773,-148.1893 94.6328,-137.2476 92.96,-129.0923"/>
<polygon fill="#000000" stroke="#000000" points="96.3284,-128.0955 90.8903,-119.0028 89.4712,-129.5022 96.3284,-128.0955"/>
</g>
<!-- p14 -->
<g id="node14" class="node">
<title>p14</title>
<ellipse fill="none" stroke="#000000" cx="141.5" cy="-117.1" rx="3.5" ry="3.5"/>
<text text-anchor="middle" x="113.5" y="-124.4" font-family="Times,serif" font-size="14.00" fill="#000000">collect</text>
</g>
<!-- p9&#45;&gt;p14 -->
<g id="edge16" class="edge">
<title>p9&#45;&gt;p14</title>
<path fill="none" stroke="#000000" d="M114.4132,-157.7302C120.7134,-148.2799 128.2654,-136.9519 133.7929,-128.6607"/>
<polygon fill="#000000" stroke="#000000" points="136.8301,-130.4146 139.4649,-120.1526 131.0057,-126.5317 136.8301,-130.4146"/>
</g>
<!-- p10 -->
<g id="node15" class="node">
<title>p10</title>
<ellipse fill="#000000" stroke="#000000" cx="165.5" cy="-117.1" rx="1.8" ry="1.8"/>
</g>
<!-- p9&#45;&gt;p10 -->
<g id="edge17" class="edge">
<title>p9&#45;&gt;p10</title>
<path fill="none" stroke="#000000" d="M121.7444,-157.7302C133.3126,-146.9883 147.4933,-133.8205 156.5141,-125.444"/>
<polygon fill="#000000" stroke="#000000" points="159.1457,-127.7767 164.0921,-118.4073 154.3825,-122.6471 159.1457,-127.7767"/>
</g>
<!-- p14&#45;&gt;p15 -->
<g id="edge18" class="edge">
<title>p14&#45;&gt;p15</title>
<path fill="none" stroke="#000000" d="M144.201,-114.2784C149.5203,-108.7216 161.8329,-95.8594 173.2849,-83.8961"/>
<polygon fill="#000000" stroke="#000000" points="175.8473,-86.2808 180.234,-76.6368 170.7907,-81.4402 175.8473,-86.2808"/>
</g>
<!-- p16 -->
<g id="node17" class="node">
<title>p16</title>
<ellipse fill="#000000" stroke="#000000" cx="197.5" cy="-1.8" rx="1.8" ry="1.8"/>
</g>
<!-- p15&#45;&gt;p16 -->
<g id="edge20" class="edge">
<title>p15&#45;&gt;p16</title>
<path fill="none" stroke="#000000" d="M197.5,-40.3155C197.5,-31.6139 197.5,-21.4551 197.5,-13.756"/>
<polygon fill="#000000" stroke="#000000" points="201.0001,-13.6036 197.5,-3.6036 194.0001,-13.6037 201.0001,-13.6036"/>
</g>
</g>
</svg>
