<?xml version="1.0" encoding="UTF-8" standalone="no"?>
<!DOCTYPE svg PUBLIC "-//W3C//DTD SVG 1.1//EN"
 "http://www.w3.org/Graphics/SVG/1.1/DTD/svg11.dtd">
<!-- Generated by graphviz version 2.40.1 (0)
 -->
<!-- Title: GermlineStructuralV_dag_20231205_134654 Pages: 1 -->
<svg width="307pt" height="450pt"
 viewBox="0.00 0.00 306.65 450.00" xmlns="http://www.w3.org/2000/svg" xmlns:xlink="http://www.w3.org/1999/xlink">
<g id="graph0" class="graph" transform="scale(1 1) rotate(0) translate(4 446)">
<title>GermlineStructuralV_dag_20231205_134654</title>
<polygon fill="#ffffff" stroke="transparent" points="-4,4 -4,-446 302.6456,-446 302.6456,4 -4,4"/>
<!-- p0 -->
<g id="node1" class="node">
<title>p0</title>
<ellipse fill="#000000" stroke="#000000" cx="133.6" cy="-423.4" rx="3.6" ry="3.6"/>
<text text-anchor="middle" x="65" y="-430.8" font-family="Times,serif" font-size="14.00" fill="#000000">Channel.fromPath</text>
</g>
<!-- p1 -->
<g id="node2" class="node">
<title>p1</title>
<ellipse fill="none" stroke="#000000" cx="133.6" cy="-364.8" rx="68.7879" ry="18"/>
<text text-anchor="middle" x="133.6" y="-361.1" font-family="Times,serif" font-size="14.00" fill="#000000">checkInputs</text>
</g>
<!-- p0&#45;&gt;p1 -->
<g id="edge1" class="edge">
<title>p0&#45;&gt;p1</title>
<path fill="none" stroke="#000000" d="M133.6,-419.5551C133.6,-414.0551 133.6,-403.4505 133.6,-393.0272"/>
<polygon fill="#000000" stroke="#000000" points="137.1001,-392.8601 133.6,-382.8601 130.1001,-392.8601 137.1001,-392.8601"/>
</g>
<!-- p2 -->
<g id="node3" class="node">
<title>p2</title>
<ellipse fill="none" stroke="#000000" cx="133.6" cy="-306.3" rx="3.5" ry="3.5"/>
<text text-anchor="middle" x="100.6" y="-313.6" font-family="Times,serif" font-size="14.00" fill="#000000">splitCsv</text>
</g>
<!-- p1&#45;&gt;p2 -->
<g id="edge2" class="edge">
<title>p1&#45;&gt;p2</title>
<path fill="none" stroke="#000000" d="M133.6,-346.6109C133.6,-338.1587 133.6,-328.2613 133.6,-320.389"/>
<polygon fill="#000000" stroke="#000000" points="137.1001,-320.1836 133.6,-310.1837 130.1001,-320.1837 137.1001,-320.1836"/>
</g>
<!-- p3 -->
<g id="node4" class="node">
<title>p3</title>
<ellipse fill="none" stroke="#000000" cx="133.6" cy="-262.2" rx="3.5" ry="3.5"/>
<text text-anchor="middle" x="114.6" y="-269.5" font-family="Times,serif" font-size="14.00" fill="#000000">map</text>
</g>
<!-- p2&#45;&gt;p3 -->
<g id="edge3" class="edge">
<title>p2&#45;&gt;p3</title>
<path fill="none" stroke="#000000" d="M133.6,-302.5401C133.6,-296.7469 133.6,-285.344 133.6,-276.1354"/>
<polygon fill="#000000" stroke="#000000" points="137.1001,-275.9504 133.6,-265.9504 130.1001,-275.9505 137.1001,-275.9504"/>
</g>
<!-- p5 -->
<g id="node5" class="node">
<title>p5</title>
<ellipse fill="none" stroke="#000000" cx="248.6" cy="-189.6" rx="50.0912" ry="18"/>
<text text-anchor="middle" x="248.6" y="-185.9" font-family="Times,serif" font-size="14.00" fill="#000000">mutect2</text>
</g>
<!-- p3&#45;&gt;p5 -->
<g id="edge4" class="edge">
<title>p3&#45;&gt;p5</title>
<path fill="none" stroke="#000000" d="M134.9307,-258.6564C137.8062,-251.4504 145.2684,-234.9784 156.6,-225.6 168.3019,-215.9151 182.9178,-208.6227 197.0311,-203.2265"/>
<polygon fill="#000000" stroke="#000000" points="198.4351,-206.4418 206.6795,-199.7875 196.0848,-199.8481 198.4351,-206.4418"/>
<text text-anchor="middle" x="202.6" y="-229.4" font-family="Times,serif" font-size="14.00" fill="#000000">bam_pair_ch</text>
</g>
<!-- p9 -->
<g id="node10" class="node">
<title>p9</title>
<ellipse fill="none" stroke="#000000" cx="128.6" cy="-58.6" rx="88.2844" ry="18"/>
<text text-anchor="middle" x="128.6" y="-54.9" font-family="Times,serif" font-size="14.00" fill="#000000">GatherVcfs_step</text>
</g>
<!-- p3&#45;&gt;p9 -->
<g id="edge10" class="edge">
<title>p3&#45;&gt;p9</title>
<path fill="none" stroke="#000000" d="M133.5132,-258.6661C133.0179,-238.4962 130.527,-137.0694 129.2939,-86.8536"/>
<polygon fill="#000000" stroke="#000000" points="132.7885,-86.5903 129.044,-76.6793 125.7906,-86.7623 132.7885,-86.5903"/>
<text text-anchor="middle" x="177.6" y="-142.4" font-family="Times,serif" font-size="14.00" fill="#000000">bam_pair_ch</text>
</g>
<!-- p8 -->
<g id="node7" class="node">
<title>p8</title>
<ellipse fill="none" stroke="#000000" cx="272.6" cy="-117.1" rx="3.5" ry="3.5"/>
<text text-anchor="middle" x="244.6" y="-124.4" font-family="Times,serif" font-size="14.00" fill="#000000">collect</text>
</g>
<!-- p5&#45;&gt;p8 -->
<g id="edge6" class="edge">
<title>p5&#45;&gt;p8</title>
<path fill="none" stroke="#000000" d="M254.5326,-171.6786C258.7771,-158.8565 264.3961,-141.8827 268.2338,-130.2895"/>
<polygon fill="#000000" stroke="#000000" points="271.636,-131.149 271.4561,-120.5557 264.9907,-128.9491 271.636,-131.149"/>
</g>
<!-- p7 -->
<g id="node8" class="node">
<title>p7</title>
<ellipse fill="#000000" stroke="#000000" cx="223.6" cy="-117.1" rx="1.8" ry="1.8"/>
</g>
<!-- p5&#45;&gt;p7 -->
<g id="edge7" class="edge">
<title>p5&#45;&gt;p7</title>
<path fill="none" stroke="#000000" d="M242.4202,-171.6786C237.7977,-158.2734 231.6104,-140.3302 227.6145,-128.7421"/>
<polygon fill="#000000" stroke="#000000" points="230.8032,-127.2526 224.2344,-118.9398 224.1856,-129.5345 230.8032,-127.2526"/>
</g>
<!-- p6 -->
<g id="node9" class="node">
<title>p6</title>
<ellipse fill="#000000" stroke="#000000" cx="248.6" cy="-117.1" rx="1.8" ry="1.8"/>
</g>
<!-- p5&#45;&gt;p6 -->
<g id="edge8" class="edge">
<title>p5&#45;&gt;p6</title>
<path fill="none" stroke="#000000" d="M248.6,-171.3052C248.6,-158.039 248.6,-140.4807 248.6,-128.9939"/>
<polygon fill="#000000" stroke="#000000" points="252.1001,-128.9193 248.6,-118.9193 245.1001,-128.9193 252.1001,-128.9193"/>
</g>
<!-- p4 -->
<g id="node6" class="node">
<title>p4</title>
<ellipse fill="#000000" stroke="#000000" cx="256.6" cy="-262.2" rx="3.6" ry="3.6"/>
</g>
<!-- p4&#45;&gt;p5 -->
<g id="edge5" class="edge">
<title>p4&#45;&gt;p5</title>
<path fill="none" stroke="#000000" d="M256.1699,-258.2967C255.3313,-250.6869 253.4114,-233.2632 251.715,-217.8684"/>
<polygon fill="#000000" stroke="#000000" points="255.1666,-217.2367 250.5923,-207.6802 248.2088,-218.0034 255.1666,-217.2367"/>
</g>
<!-- p8&#45;&gt;p9 -->
<g id="edge9" class="edge">
<title>p8&#45;&gt;p9</title>
<path fill="none" stroke="#000000" d="M269.3218,-115.7682C257.1395,-110.8192 213.3484,-93.029 177.8135,-78.593"/>
<polygon fill="#000000" stroke="#000000" points="179.0953,-75.336 168.5133,-74.8148 176.4607,-81.8213 179.0953,-75.336"/>
</g>
<!-- p11 -->
<g id="node11" class="node">
<title>p11</title>
<ellipse fill="#000000" stroke="#000000" cx="116.6" cy="-1.8" rx="1.8" ry="1.8"/>
</g>
<!-- p9&#45;&gt;p11 -->
<g id="edge11" class="edge">
<title>p9&#45;&gt;p11</title>
<path fill="none" stroke="#000000" d="M124.7371,-40.3155C122.876,-31.5065 120.6994,-21.204 119.0659,-13.472"/>
<polygon fill="#000000" stroke="#000000" points="122.4726,-12.6642 116.981,-3.6036 115.6238,-14.1112 122.4726,-12.6642"/>
</g>
<!-- p10 -->
<g id="node12" class="node">
<title>p10</title>
<ellipse fill="#000000" stroke="#000000" cx="141.6" cy="-1.8" rx="1.8" ry="1.8"/>
</g>
<!-- p9&#45;&gt;p10 -->
<g id="edge12" class="edge">
<title>p9&#45;&gt;p10</title>
<path fill="none" stroke="#000000" d="M132.7848,-40.3155C134.801,-31.5065 137.1589,-21.204 138.9286,-13.472"/>
<polygon fill="#000000" stroke="#000000" points="142.3679,-14.1325 141.1872,-3.6036 135.5443,-12.5707 142.3679,-14.1325"/>
</g>
</g>
</svg>
