<?xml version="1.0" encoding="UTF-8" standalone="no"?>
<!DOCTYPE svg PUBLIC "-//W3C//DTD SVG 1.1//EN"
 "http://www.w3.org/Graphics/SVG/1.1/DTD/svg11.dtd">
<!-- Generated by graphviz version 2.40.1 (0)
 -->
<!-- Title: GermlineStructuralV_dag_20231205_114025 Pages: 1 -->
<svg width="384pt" height="581pt"
 viewBox="0.00 0.00 383.84 581.00" xmlns="http://www.w3.org/2000/svg" xmlns:xlink="http://www.w3.org/1999/xlink">
<g id="graph0" class="graph" transform="scale(1 1) rotate(0) translate(4 577)">
<title>GermlineStructuralV_dag_20231205_114025</title>
<polygon fill="#ffffff" stroke="transparent" points="-4,4 -4,-577 379.8368,-577 379.8368,4 -4,4"/>
<!-- p0 -->
<g id="node1" class="node">
<title>p0</title>
<ellipse fill="#000000" stroke="#000000" cx="193.7912" cy="-554.4" rx="3.6" ry="3.6"/>
<text text-anchor="middle" x="125.1912" y="-561.8" font-family="Times,serif" font-size="14.00" fill="#000000">Channel.fromPath</text>
</g>
<!-- p1 -->
<g id="node2" class="node">
<title>p1</title>
<ellipse fill="none" stroke="#000000" cx="193.7912" cy="-495.8" rx="68.7879" ry="18"/>
<text text-anchor="middle" x="193.7912" y="-492.1" font-family="Times,serif" font-size="14.00" fill="#000000">checkInputs</text>
</g>
<!-- p0&#45;&gt;p1 -->
<g id="edge1" class="edge">
<title>p0&#45;&gt;p1</title>
<path fill="none" stroke="#000000" d="M193.7912,-550.5551C193.7912,-545.0551 193.7912,-534.4505 193.7912,-524.0272"/>
<polygon fill="#000000" stroke="#000000" points="197.2913,-523.8601 193.7912,-513.8601 190.2913,-523.8601 197.2913,-523.8601"/>
</g>
<!-- p2 -->
<g id="node3" class="node">
<title>p2</title>
<ellipse fill="none" stroke="#000000" cx="193.7912" cy="-437.3" rx="3.5" ry="3.5"/>
<text text-anchor="middle" x="160.7912" y="-444.6" font-family="Times,serif" font-size="14.00" fill="#000000">splitCsv</text>
</g>
<!-- p1&#45;&gt;p2 -->
<g id="edge2" class="edge">
<title>p1&#45;&gt;p2</title>
<path fill="none" stroke="#000000" d="M193.7912,-477.6109C193.7912,-469.1587 193.7912,-459.2613 193.7912,-451.389"/>
<polygon fill="#000000" stroke="#000000" points="197.2913,-451.1836 193.7912,-441.1837 190.2913,-451.1837 197.2913,-451.1836"/>
</g>
<!-- p3 -->
<g id="node4" class="node">
<title>p3</title>
<ellipse fill="none" stroke="#000000" cx="193.7912" cy="-393.2" rx="3.5" ry="3.5"/>
<text text-anchor="middle" x="174.7912" y="-400.5" font-family="Times,serif" font-size="14.00" fill="#000000">map</text>
</g>
<!-- p2&#45;&gt;p3 -->
<g id="edge3" class="edge">
<title>p2&#45;&gt;p3</title>
<path fill="none" stroke="#000000" d="M193.7912,-433.5401C193.7912,-427.7469 193.7912,-416.344 193.7912,-407.1354"/>
<polygon fill="#000000" stroke="#000000" points="197.2913,-406.9504 193.7912,-396.9504 190.2913,-406.9505 197.2913,-406.9504"/>
</g>
<!-- p5 -->
<g id="node5" class="node">
<title>p5</title>
<ellipse fill="none" stroke="#000000" cx="325.7912" cy="-320.6" rx="50.0912" ry="18"/>
<text text-anchor="middle" x="325.7912" y="-316.9" font-family="Times,serif" font-size="14.00" fill="#000000">mutect2</text>
</g>
<!-- p3&#45;&gt;p5 -->
<g id="edge4" class="edge">
<title>p3&#45;&gt;p5</title>
<path fill="none" stroke="#000000" d="M196.402,-390.1408C202.386,-383.293 217.8114,-366.5522 233.7912,-356.6 247.2866,-348.1951 263.071,-341.1569 277.7173,-335.5977"/>
<polygon fill="#000000" stroke="#000000" points="278.9479,-338.8745 287.1422,-332.1585 276.5483,-332.2986 278.9479,-338.8745"/>
<text text-anchor="middle" x="279.7912" y="-360.4" font-family="Times,serif" font-size="14.00" fill="#000000">bam_pair_ch</text>
</g>
<!-- p9 -->
<g id="node10" class="node">
<title>p9</title>
<ellipse fill="none" stroke="#000000" cx="202.7912" cy="-175.6" rx="88.2844" ry="18"/>
<text text-anchor="middle" x="202.7912" y="-171.9" font-family="Times,serif" font-size="14.00" fill="#000000">GatherVcfs_step</text>
</g>
<!-- p3&#45;&gt;p9 -->
<g id="edge10" class="edge">
<title>p3&#45;&gt;p9</title>
<path fill="none" stroke="#000000" d="M193.4522,-389.3506C192.1642,-374.1362 187.7953,-316.7271 190.7912,-269.6 192.2026,-247.3994 195.4707,-222.4269 198.2405,-203.8041"/>
<polygon fill="#000000" stroke="#000000" points="201.7022,-204.3204 199.7544,-193.9061 194.7827,-203.262 201.7022,-204.3204"/>
<text text-anchor="middle" x="236.7912" y="-273.4" font-family="Times,serif" font-size="14.00" fill="#000000">bam_pair_ch</text>
</g>
<!-- p12 -->
<g id="node13" class="node">
<title>p12</title>
<ellipse fill="none" stroke="#000000" cx="98.7912" cy="-58.6" rx="98.5829" ry="18"/>
<text text-anchor="middle" x="98.7912" y="-54.9" font-family="Times,serif" font-size="14.00" fill="#000000">MergeMutectStats</text>
</g>
<!-- p3&#45;&gt;p12 -->
<g id="edge14" class="edge">
<title>p3&#45;&gt;p12</title>
<path fill="none" stroke="#000000" d="M190.2312,-392.6214C171.665,-389.3836 86.7912,-371.7832 86.7912,-320.6 86.7912,-320.6 86.7912,-320.6 86.7912,-117.1 86.7912,-106.9737 88.538,-96.0587 90.6987,-86.431"/>
<polygon fill="#000000" stroke="#000000" points="94.1298,-87.1361 93.1426,-76.5874 87.3361,-85.4493 94.1298,-87.1361"/>
<text text-anchor="middle" x="132.7912" y="-215.4" font-family="Times,serif" font-size="14.00" fill="#000000">bam_pair_ch</text>
</g>
<!-- p8 -->
<g id="node7" class="node">
<title>p8</title>
<ellipse fill="none" stroke="#000000" cx="263.7912" cy="-248.1" rx="3.5" ry="3.5"/>
<text text-anchor="middle" x="235.7912" y="-255.4" font-family="Times,serif" font-size="14.00" fill="#000000">collect</text>
</g>
<!-- p5&#45;&gt;p8 -->
<g id="edge6" class="edge">
<title>p5&#45;&gt;p8</title>
<path fill="none" stroke="#000000" d="M313.4745,-303.031C306.119,-292.9246 296.369,-280.1746 286.7912,-269.6 282.888,-265.2904 278.2573,-260.8501 274.1776,-257.1318"/>
<polygon fill="#000000" stroke="#000000" points="276.4407,-254.461 266.6237,-250.4765 271.8132,-259.7133 276.4407,-254.461"/>
</g>
<!-- p7 -->
<g id="node8" class="node">
<title>p7</title>
<ellipse fill="#000000" stroke="#000000" cx="325.7912" cy="-248.1" rx="1.8" ry="1.8"/>
</g>
<!-- p5&#45;&gt;p7 -->
<g id="edge7" class="edge">
<title>p5&#45;&gt;p7</title>
<path fill="none" stroke="#000000" d="M325.7912,-302.3052C325.7912,-289.039 325.7912,-271.4807 325.7912,-259.9939"/>
<polygon fill="#000000" stroke="#000000" points="329.2913,-259.9193 325.7912,-249.9193 322.2913,-259.9193 329.2913,-259.9193"/>
</g>
<!-- p6 -->
<g id="node9" class="node">
<title>p6</title>
<ellipse fill="#000000" stroke="#000000" cx="350.7912" cy="-248.1" rx="1.8" ry="1.8"/>
</g>
<!-- p5&#45;&gt;p6 -->
<g id="edge8" class="edge">
<title>p5&#45;&gt;p6</title>
<path fill="none" stroke="#000000" d="M331.971,-302.6786C336.5935,-289.2734 342.7808,-271.3302 346.7767,-259.7421"/>
<polygon fill="#000000" stroke="#000000" points="350.2057,-260.5345 350.1568,-249.9398 343.588,-258.2526 350.2057,-260.5345"/>
</g>
<!-- p4 -->
<g id="node6" class="node">
<title>p4</title>
<ellipse fill="#000000" stroke="#000000" cx="333.7912" cy="-393.2" rx="3.6" ry="3.6"/>
</g>
<!-- p4&#45;&gt;p5 -->
<g id="edge5" class="edge">
<title>p4&#45;&gt;p5</title>
<path fill="none" stroke="#000000" d="M333.3611,-389.2967C332.5226,-381.6869 330.6026,-364.2632 328.9062,-348.8684"/>
<polygon fill="#000000" stroke="#000000" points="332.3579,-348.2367 327.7835,-338.6802 325.4,-349.0034 332.3579,-348.2367"/>
</g>
<!-- p8&#45;&gt;p9 -->
<g id="edge9" class="edge">
<title>p8&#45;&gt;p9</title>
<path fill="none" stroke="#000000" d="M261.4744,-245.3464C255.415,-238.1446 238.5909,-218.1487 224.5023,-201.4041"/>
<polygon fill="#000000" stroke="#000000" points="226.9813,-198.9141 217.865,-193.5155 221.625,-203.4208 226.9813,-198.9141"/>
</g>
<!-- p11 -->
<g id="node11" class="node">
<title>p11</title>
<ellipse fill="none" stroke="#000000" cx="153.7912" cy="-117.1" rx="3.5" ry="3.5"/>
<text text-anchor="middle" x="125.7912" y="-124.4" font-family="Times,serif" font-size="14.00" fill="#000000">collect</text>
</g>
<!-- p9&#45;&gt;p11 -->
<g id="edge11" class="edge">
<title>p9&#45;&gt;p11</title>
<path fill="none" stroke="#000000" d="M187.8234,-157.7302C179.6439,-147.9649 169.785,-136.1946 162.7887,-127.8419"/>
<polygon fill="#000000" stroke="#000000" points="165.4525,-125.5713 156.3481,-120.1526 160.0862,-130.0661 165.4525,-125.5713"/>
</g>
<!-- p10 -->
<g id="node12" class="node">
<title>p10</title>
<ellipse fill="#000000" stroke="#000000" cx="202.7912" cy="-117.1" rx="1.8" ry="1.8"/>
</g>
<!-- p9&#45;&gt;p10 -->
<g id="edge12" class="edge">
<title>p9&#45;&gt;p10</title>
<path fill="none" stroke="#000000" d="M202.7912,-157.4109C202.7912,-148.1893 202.7912,-137.2476 202.7912,-129.0923"/>
<polygon fill="#000000" stroke="#000000" points="206.2913,-129.0028 202.7912,-119.0028 199.2913,-129.0028 206.2913,-129.0028"/>
</g>
<!-- p11&#45;&gt;p12 -->
<g id="edge13" class="edge">
<title>p11&#45;&gt;p12</title>
<path fill="none" stroke="#000000" d="M151.1385,-114.2784C145.8786,-108.6838 133.6566,-95.6841 122.3445,-83.6521"/>
<polygon fill="#000000" stroke="#000000" points="124.8888,-81.2486 115.489,-76.3604 119.7888,-86.0435 124.8888,-81.2486"/>
</g>
<!-- p14 -->
<g id="node14" class="node">
<title>p14</title>
<ellipse fill="#000000" stroke="#000000" cx="86.7912" cy="-1.8" rx="1.8" ry="1.8"/>
</g>
<!-- p12&#45;&gt;p14 -->
<g id="edge15" class="edge">
<title>p12&#45;&gt;p14</title>
<path fill="none" stroke="#000000" d="M94.9283,-40.3155C93.0673,-31.5065 90.8907,-21.204 89.2571,-13.472"/>
<polygon fill="#000000" stroke="#000000" points="92.6638,-12.6642 87.1723,-3.6036 85.815,-14.1112 92.6638,-12.6642"/>
</g>
<!-- p13 -->
<g id="node15" class="node">
<title>p13</title>
<ellipse fill="#000000" stroke="#000000" cx="111.7912" cy="-1.8" rx="1.8" ry="1.8"/>
</g>
<!-- p12&#45;&gt;p13 -->
<g id="edge16" class="edge">
<title>p12&#45;&gt;p13</title>
<path fill="none" stroke="#000000" d="M102.9761,-40.3155C104.9922,-31.5065 107.3502,-21.204 109.1198,-13.472"/>
<polygon fill="#000000" stroke="#000000" points="112.5591,-14.1325 111.3784,-3.6036 105.7355,-12.5707 112.5591,-14.1325"/>
</g>
</g>
</svg>
